<svg width="164" height="164" viewBox="0 0 164 164" fill="none" xmlns="http://www.w3.org/2000/svg">
<g id="Frame">
<g id="Group">
<path id="Vector" d="M82.5166 33.9562C82.5561 33.9575 82.5951 33.9473 82.629 33.9269C82.6628 33.9065 82.6901 33.8767 82.7074 33.8412C82.7247 33.8057 82.7314 33.7659 82.7267 33.7266C82.7219 33.6874 82.7059 33.6504 82.6806 33.62C82.5576 33.4724 82.1148 33.62 81.9672 33.169C81.8196 32.718 82.492 31.8242 82.738 31.529C82.766 31.4879 82.7781 31.438 82.7721 31.3886C82.766 31.3392 82.7422 31.2937 82.705 31.2605C82.6679 31.2274 82.62 31.2089 82.5702 31.2085C82.5205 31.2082 82.4722 31.2259 82.4346 31.2584C81.3358 32.3818 80.9422 33.743 82.5166 33.9562ZM82.3444 35.1862C82.6119 35.3283 82.906 35.4133 83.208 35.4359C83.5101 35.4585 83.8135 35.4181 84.0992 35.3174C84.0502 35.5698 83.9358 35.8049 83.7675 35.9992C83.5991 36.1934 83.3826 36.3401 83.1398 36.4244C83.0865 36.4375 83.0406 36.4711 83.0121 36.518C82.9837 36.5649 82.975 36.6212 82.9881 36.6745C83.0011 36.7278 83.0348 36.7737 83.0817 36.8022C83.1286 36.8306 83.1849 36.8393 83.2382 36.8262C83.6612 36.7212 84.0337 36.4704 84.2901 36.118C84.5466 35.7656 84.6706 35.334 84.6404 34.8992C84.6426 34.8727 84.6395 34.846 84.6311 34.8208C84.6227 34.7955 84.6093 34.7722 84.5917 34.7523C84.5741 34.7323 84.5526 34.7162 84.5285 34.7048C84.5045 34.6934 84.4784 34.687 84.4518 34.686C84.1597 34.8563 83.832 34.956 83.4946 34.9774C83.1573 34.9987 82.8196 34.9411 82.5084 34.809C82.4836 34.7982 82.457 34.7925 82.43 34.792C82.403 34.7915 82.3761 34.7964 82.351 34.8063C82.3259 34.8162 82.303 34.8309 82.2835 34.8497C82.2641 34.8684 82.2486 34.8908 82.2378 34.9156C82.227 34.9404 82.2212 34.967 82.2208 34.994C82.2203 35.021 82.2251 35.0479 82.235 35.073C82.2449 35.0981 82.2597 35.121 82.2785 35.1405C82.2972 35.1599 82.3196 35.1754 82.3444 35.1862ZM81.5982 31.0944C81.672 31.1846 81.6884 31.324 81.877 31.324C81.9106 31.3263 81.9444 31.3216 81.9762 31.3102C82.0079 31.2989 82.037 31.2811 82.0616 31.258C82.0862 31.235 82.1058 31.2071 82.1192 31.1761C82.1326 31.1451 82.1395 31.1117 82.1394 31.078C82.126 30.9066 82.0591 30.7437 81.9481 30.6124C81.837 30.4811 81.6876 30.388 81.5208 30.3463C81.3539 30.3046 81.1783 30.3164 81.0185 30.38C80.8588 30.4436 80.7231 30.5559 80.6306 30.7008C80.483 30.8976 80.7536 31.1846 80.975 31.037C81.0653 30.962 81.1816 30.926 81.2985 30.9368C81.4153 30.9475 81.5231 31.0042 81.5982 31.0944ZM84.2058 32.2342C84.296 32.2342 84.7716 31.8734 85.075 32.3818C85.0956 32.4206 85.1286 32.4513 85.1687 32.4691C85.2089 32.4869 85.2538 32.4909 85.2964 32.4802C85.608 32.3982 85.567 31.8242 85.1324 31.611C84.6978 31.3978 83.8532 31.611 83.9598 32.062C83.9637 32.0899 83.9733 32.1167 83.988 32.1408C84.0027 32.1648 84.0222 32.1855 84.0453 32.2017C84.0684 32.2179 84.0945 32.2291 84.1221 32.2347C84.1498 32.2403 84.1782 32.2401 84.2058 32.2342ZM85.9196 30.8976C86.2558 30.6844 85.8376 29.7086 85.1898 29.5938C85.0841 29.5612 84.9707 29.564 84.8667 29.6016C84.7628 29.6393 84.6739 29.7098 84.6136 29.8025C84.5534 29.8953 84.525 30.0051 84.5328 30.1154C84.5406 30.2257 84.5841 30.3305 84.6568 30.4138C84.9274 30.668 85.6162 31.0944 85.9196 30.8976ZM81.918 29.766H82.1558C82.2571 29.7308 82.3449 29.6648 82.4071 29.5774C82.4692 29.49 82.5026 29.3854 82.5026 29.2781C82.5026 29.1708 82.4692 29.0662 82.4071 28.9788C82.3449 28.8914 82.2571 28.8255 82.1558 28.7902C81.4014 28.413 80.0238 29.766 81.918 29.766ZM94.1196 120.36C108.101 113.185 125.28 104.968 139.22 98.2196C139.261 98.1913 139.291 98.1487 139.303 98.1001C139.315 98.0514 139.309 97.9999 139.285 97.9555C139.262 97.911 139.223 97.8766 139.177 97.8588C139.13 97.841 139.078 97.841 139.031 97.8588C122.295 105.509 110.249 110.979 93.931 119.941C93.6768 120.081 93.8818 120.474 94.1196 120.36ZM159.211 94.7674C125.968 113.447 109.281 124.738 93.6604 133.849C93.6202 133.87 93.5883 133.905 93.57 133.947C93.5516 133.989 93.5478 134.035 93.5591 134.08C93.5704 134.124 93.5962 134.163 93.6324 134.191C93.6686 134.219 93.7131 134.234 93.7588 134.234C93.972 134.234 159.474 95.12 159.506 94.997C159.516 94.9586 159.514 94.9184 159.501 94.881C159.488 94.8437 159.464 94.811 159.433 94.7867C159.402 94.7625 159.364 94.7477 159.325 94.7443C159.286 94.7409 159.246 94.7489 159.211 94.7674ZM89.9868 24.067C90.2887 24.0599 90.5819 23.9638 90.8294 23.7908C91.077 23.6178 91.2679 23.3755 91.3782 23.0943C91.4886 22.8132 91.5135 22.5057 91.4497 22.2105C91.386 21.9152 91.2365 21.6454 91.02 21.4348C90.8035 21.224 90.5291 21.0826 90.2317 21.0288C89.9344 20.975 89.6278 21.0112 89.3512 21.1327C89.0745 21.2543 88.8405 21.4557 88.6791 21.7111C88.5177 21.9666 88.4362 22.2644 88.4452 22.5664C88.4267 22.7717 88.4543 22.9785 88.5258 23.1718C88.5974 23.365 88.7111 23.5399 88.8588 23.6837C89.0065 23.8274 89.1844 23.9364 89.3795 24.0027C89.5746 24.0691 89.7821 24.091 89.9868 24.067ZM89.6752 21.4676C89.8617 21.3969 90.0648 21.3818 90.2598 21.424C90.4547 21.4662 90.6333 21.5639 90.774 21.7054C90.9258 21.8686 91.0272 22.0722 91.066 22.2916C91.1048 22.5111 91.0793 22.7371 90.9927 22.9424C90.9061 23.1477 90.7619 23.3236 90.5776 23.449C90.3934 23.5743 90.1768 23.6437 89.954 23.6488C89.6908 23.638 89.4399 23.5344 89.2458 23.3563C89.0517 23.1783 88.9269 22.9372 88.8935 22.6759C88.8601 22.4147 88.9203 22.15 89.0634 21.9288C89.2064 21.7076 89.4232 21.5443 89.6752 21.4676ZM119.909 54.5546C123.672 55.5386 135.407 55.7026 134.529 51.9224C134.201 50.5284 132.069 50.143 132.069 50.143C130.495 51.5206 121.122 51.6436 119.482 50.2414C119.482 50.2414 117.317 50.4218 117.08 52.0372C116.916 53.3 118.154 54.12 119.909 54.5546ZM130.38 34.1202C128.412 35.2272 124.468 35.6864 122.36 34.1202C118.793 34.6368 118.457 38.2202 126.46 38.0972C134.234 38.0562 133.783 34.3826 130.38 34.1202ZM128.937 66.42C125.124 66.748 116.596 66.1166 113.275 64.6324C113.08 64.8257 112.937 65.0649 112.858 65.3279C112.78 65.5909 112.769 65.8694 112.826 66.1379C112.883 66.4064 113.006 66.6562 113.185 66.8645C113.364 67.0728 113.592 67.233 113.849 67.3302C117.531 68.4454 124.419 68.7898 128.609 68.6586C128.442 68.3144 128.374 67.9308 128.411 67.5503C128.449 67.1697 128.591 66.8069 128.822 66.502C128.858 66.4712 128.896 66.4438 128.937 66.42ZM126.182 31.3568C127.58 31.3422 128.942 30.9144 130.097 30.1271C131.253 29.3398 132.149 28.2283 132.674 26.9325C133.199 25.6367 133.329 24.2146 133.047 22.8451C132.766 21.4757 132.085 20.2203 131.091 19.2368C130.098 18.2533 128.835 17.5859 127.463 17.3184C126.091 17.051 124.67 17.1955 123.38 17.7339C122.089 18.2722 120.987 19.1802 120.212 20.3437C119.437 21.5071 119.023 22.8739 119.023 24.272C119.034 26.1605 119.794 27.9674 121.136 29.2958C122.478 30.6243 124.293 31.3655 126.182 31.3568ZM126.797 22.0498C126.948 21.751 127.209 21.5221 127.525 21.4106C127.841 21.2992 128.188 21.3137 128.494 21.4512C128.737 21.6817 128.881 21.9968 128.898 22.3311C128.915 22.6654 128.803 22.9933 128.584 23.247C128.432 23.5458 128.171 23.7747 127.855 23.8862C127.539 23.9976 127.192 23.9831 126.887 23.8456C126.644 23.6151 126.499 23.3 126.483 22.9657C126.466 22.6315 126.578 22.3035 126.797 22.0498ZM122.516 19.8358C122.844 19.3886 123.335 19.0881 123.883 18.9992C124.43 18.9102 124.991 19.0399 125.444 19.3602C125.821 19.7677 126.024 20.3075 126.007 20.8629C125.99 21.4183 125.755 21.9448 125.353 22.3286C125.025 22.7758 124.535 23.0763 123.987 23.1653C123.439 23.2542 122.879 23.1246 122.426 22.8042C122.048 22.3967 121.846 21.857 121.863 21.3015C121.88 20.7461 122.114 20.2196 122.516 19.8358Z" fill="black"/>
<path id="Vector_2" d="M122.352 38.4826C122.14 42.2154 121.248 45.878 119.72 49.2902C121.704 50.9302 130.446 50.676 131.938 49.036C130.993 45.572 130.47 42.0065 130.38 38.417C127.751 39.1036 124.992 39.1261 122.352 38.4826ZM39.5404 50.1758C34.9402 45.5838 31.488 45.1492 32.3162 52.4964C34.6236 51.4389 37.0488 50.6599 39.5404 50.1758ZM28.9624 57.81C31.2584 59.45 32.6442 60.8768 33.4888 62.935C34.6266 62.2742 35.8105 61.696 37.0312 61.2048C35.8832 58.548 34.071 55.76 31.6274 54.12C30.6321 54.6332 29.6781 55.2226 28.7738 55.883C28.652 56.0184 28.5598 56.1777 28.5029 56.3508C28.4461 56.5238 28.4259 56.7068 28.4436 56.888C28.4614 57.0693 28.5166 57.2449 28.606 57.4036C28.6953 57.5624 28.8167 57.7007 28.9624 57.81ZM151.7 39.36C151.749 37.72 149.01 37.4576 149.01 37.4576C146.903 38.4006 142.91 38.827 140.548 37.4576C136.399 38.2202 136.194 42.0168 144.902 41.9348C149.625 41.9266 151.626 40.6802 151.7 39.36ZM144.541 34.0054C146.068 33.9892 147.555 33.5221 148.817 32.6629C150.078 31.8036 151.058 30.5905 151.632 29.1762C152.206 27.7618 152.349 26.2093 152.043 24.7138C151.737 23.2184 150.996 21.8467 149.913 20.7713C148.829 19.696 147.452 18.9649 145.955 18.67C144.457 18.3752 142.906 18.5297 141.495 19.1141C140.085 19.6986 138.88 20.6869 138.03 21.9548C137.18 23.2227 136.724 24.7136 136.719 26.24C136.72 27.2643 136.923 28.2783 137.317 29.2237C137.712 30.1691 138.289 31.0273 139.016 31.7489C139.743 32.4705 140.605 33.0414 141.553 33.4286C142.502 33.8159 143.517 34.0119 144.541 34.0054ZM145.214 23.8456C145.378 23.5181 145.663 23.2668 146.008 23.1445C146.354 23.0223 146.733 23.0384 147.067 23.1896C147.333 23.4406 147.491 23.7846 147.51 24.1497C147.528 24.5149 147.405 24.873 147.165 25.1494C147 25.4755 146.714 25.7249 146.369 25.8456C146.024 25.9663 145.645 25.949 145.312 25.7972C145.045 25.5486 144.885 25.2058 144.867 24.8414C144.849 24.477 144.973 24.1198 145.214 23.8456ZM140.532 21.4266C140.891 20.9364 141.429 20.6074 142.029 20.5108C142.629 20.4141 143.243 20.5575 143.738 20.91C144.149 21.3551 144.369 21.9439 144.351 22.5496C144.332 23.1554 144.077 23.7297 143.639 24.149C143.28 24.6392 142.742 24.9682 142.142 25.0648C141.542 25.1615 140.928 25.0181 140.433 24.6656C140.022 24.2205 139.802 23.6317 139.82 23.026C139.839 22.4202 140.094 21.8459 140.532 21.4266Z" fill="black"/>
<path id="Vector_3" d="M140.425 34.071C140.482 34.9402 140.564 35.7766 140.573 36.6458C142.549 37.7118 147.001 37.5888 148.994 36.5966V33.7676C147.725 34.5834 146.259 35.0421 144.751 35.0955C143.243 35.1489 141.749 34.795 140.425 34.071ZM156.226 79.6958L156.349 75.85C150.921 78.1132 136.177 77.613 131.077 75.727C131.077 76.465 131.208 78.802 131.307 79.7532C132.077 81.9508 153.865 82.4182 156.226 79.6958Z" fill="black"/>
<path id="Vector_4" d="M156.702 71.6516C149.576 74.3986 136.03 73.5212 130.733 71.545C130.445 71.7145 130.212 71.9633 130.061 72.2617C129.911 72.5602 129.85 72.8956 129.886 73.2278C129.921 73.56 130.052 73.8749 130.261 74.1349C130.471 74.3949 130.752 74.589 131.069 74.6938C136.555 76.3338 152.192 77.0636 157.137 74.456C157.932 73.9722 157.858 71.955 156.702 71.6516ZM159.843 57.4L153.594 58.056C153.706 57.7628 153.737 57.4445 153.682 57.1354C153.627 56.8263 153.489 56.5379 153.283 56.3012C152.66 55.6819 151.866 55.2646 151.003 55.104C149.281 56.6046 139.039 56.744 137.252 55.2024C137.252 55.2024 134.882 55.3992 134.619 57.1622C133.996 61.336 147.625 60.8768 150.79 59.9092C151.655 59.7028 152.457 59.2891 153.127 58.7038L159.892 57.8838C160.203 57.7936 160.22 57.3508 159.843 57.4ZM130.257 33.3658V31.0206C127.797 32.7344 125.378 32.6606 122.475 31.406C122.475 31.9554 122.557 32.9148 122.574 33.4724C125.698 34.8008 128.215 34.563 130.257 33.3658ZM132.733 61.5C133.357 60.6062 133.906 59.7616 134.267 59.122C133.184 58.6628 132.955 56.7112 134.177 55.7354C133.996 55.391 133.824 55.0384 133.66 54.6858C130.446 56.4406 120.384 56.3914 117.481 54.3742C116.251 56.6339 114.699 58.7028 112.873 60.516C121.713 63.386 127.723 62.648 132.733 61.5ZM128.929 72.8816C128.674 72.2338 128.797 71.5942 129.56 70.5118C129.261 70.2078 129.024 69.8485 128.863 69.454C123.842 69.778 118.801 69.4082 113.882 68.3552C113.923 69.2408 113.988 70.4708 114.062 71.2252C114.505 72.4716 122.5 73.1768 128.929 72.8816Z" fill="black"/>
<path id="Vector_5" d="M140.277 42.3366C139.94 46.4056 139.018 50.4047 137.539 54.2102C141.639 55.6288 147.616 55.7354 150.839 54.2102C149.922 50.354 149.373 46.4195 149.199 42.4596C146.273 43.2637 143.18 43.221 140.277 42.3366ZM143.713 69.372C136.555 69.372 133.521 68.7898 129.708 67.404C129.642 67.9616 129.693 68.5267 129.859 69.0632C130.024 69.5998 130.299 70.096 130.667 70.52C135.743 72.365 151.905 72.98 156.956 70.52C157.534 69.5304 157.756 68.3733 157.588 67.24C155.464 68.5192 149.921 69.372 143.713 69.372Z" fill="black"/>
<path id="Vector_6" d="M135.029 59.7616C133.68 62.2309 131.981 64.4927 129.986 66.4774C135.39 68.8226 150.88 69.1752 157.046 66.4774C155.243 64.6157 153.773 62.4578 152.7 60.0978C148.108 62.32 139.138 61.7706 135.029 59.7616Z" fill="black"/>
<path id="Vector_7" d="M96.8666 84.6076C97.7604 81.6556 97.6046 79.1218 97.4406 76.2108C97.9399 76.2084 98.4324 76.0945 98.8822 75.8774C99.3319 75.6604 99.7274 75.3457 100.04 74.9562C100.991 73.5376 101.229 70.2412 101.221 68.3962C106.001 74.2592 106.493 77.121 106.961 77.121C107.303 77.1701 107.649 77.1866 107.994 77.1702C107.945 77.7196 107.33 78.0558 107.469 78.7364C106.444 79.417 106.838 79.7778 106.944 82.0902C104.952 82.697 102.894 83.394 100.819 84.1648C100.425 84.3124 100.401 84.4928 99.7694 85.8048C99.5712 86.2206 99.5081 86.688 99.589 87.1414C100.482 91.9917 101.855 96.7411 103.689 101.319C103.747 101.462 103.851 101.58 103.986 101.654C104.12 101.729 104.276 101.755 104.427 101.729C112.266 100.393 120.868 97.9654 125.345 95.8416C125.462 95.7855 125.56 95.695 125.624 95.5822C125.688 95.4694 125.717 95.3396 125.706 95.2102C125.357 90.2851 124.405 85.4215 122.869 80.729C122.615 79.9828 122.123 79.909 120.655 79.2694C120.519 79.2084 120.368 79.1857 120.22 79.2038C118.113 79.4662 115.915 79.8516 113.66 80.3354C112.955 78.9332 112.717 77.7852 111.577 77.7278C111.402 77.4343 111.153 77.1913 110.856 77.0226C110.688 76.9297 110.54 76.8043 110.421 76.6536C110.602 76.5634 110.733 76.4896 110.741 76.3502C110.818 72.2503 110.516 68.152 109.839 64.1076L113.119 63.673C113.175 63.7677 113.238 63.8581 113.308 63.9436C117.252 65.5836 126.961 65.7804 129.839 65.4524C130.446 64.7144 131.175 63.7632 131.889 62.7956C126.854 63.755 118.867 63.6156 112.668 61.377C112.633 61.95 112.7 62.5247 112.865 63.0744C112.865 63.0744 110.405 63.4188 109.765 63.4762C108.363 56.0962 105.304 49.3886 99.3266 44.8868C99.2987 44.2991 99.174 43.7201 98.9576 43.173C99.106 42.8436 99.1975 42.4915 99.2282 42.1316C99.3676 40.1882 91.0856 38.4088 90.7248 40.2948L90.6674 40.5818C90.2902 40.4752 90.4542 40.5818 90.0196 40.1144C89.9294 40.0078 89.8392 40.0406 89.7244 40.1144C89.6588 38.8352 89.5768 37.4166 89.4292 36.326C89.6506 35.9734 89.9048 35.506 90.1836 35.0304C90.5219 34.8637 90.8013 34.5978 90.9844 34.2681C91.1676 33.9384 91.2458 33.5607 91.2086 33.1854C91.547 32.6192 91.8457 32.0301 92.1024 31.4224C94.669 32.9066 96.2024 33.2264 96.842 32.431C98.1868 30.791 95.8744 29.7988 96.145 28.249C96.4402 26.5352 98.7198 20.869 95.325 18.8436C95.302 18.8276 95.2848 18.8046 95.2758 18.778C95.12 18.1548 94.0868 17.0068 91.8564 16.3672C88.683 15.4652 84.9192 15.1454 80.3764 22.878C80.3107 22.9902 80.2175 23.0837 80.1056 23.1497C79.9937 23.2157 79.8667 23.252 79.7368 23.2552C78.6872 23.2552 77.4326 23.411 77.08 24.4032C76.26 26.6254 79.3186 26.5434 81.4424 26.8632C79.6548 29.6512 78.8676 34.3908 80.36 36.859C79.1874 36.3916 75.3252 35.219 74.907 36.3506C70.315 34.3334 65.9608 32.513 62.9596 31.3486C59.2286 29.8972 50.594 27.06 50.4792 27.101L50.2414 27.1994C50.4054 26.0514 49.733 25.4364 48.8966 25.5102C48.2078 25.0018 47.0434 24.231 46.6252 24.4606C46.207 24.6902 46.6908 25.2806 46.986 25.6496C46.8196 25.7355 46.6937 25.8834 46.6354 26.0614C46.5771 26.2393 46.5911 26.4331 46.6744 26.6008C46.5273 26.6993 46.425 26.8519 46.3897 27.0254C46.3544 27.1988 46.3889 27.3792 46.4858 27.5274C46.4044 27.6269 46.3522 27.747 46.3348 27.8743C46.3175 28.0017 46.3357 28.1313 46.3874 28.249C46.5291 28.4459 46.7148 28.607 46.9298 28.7195C47.1448 28.832 47.383 28.8927 47.6256 28.8968C47.9316 29.1378 48.3103 29.2678 48.6998 29.2658C48.6178 29.561 48.6998 29.6266 48.6998 29.6512C53.6198 37.4658 63.5418 46.248 70.3724 50.594C69.0135 53.749 68.0256 57.0511 67.4286 60.434C62.8553 55.0725 56.5032 51.5384 49.5362 50.4792C47.8962 48.5358 44.8212 45.4526 42.312 46.248C39.8028 47.0434 40.9016 53.9068 41.1558 56.334C41.2132 56.8506 40.7704 57.0064 40.6556 56.539C39.483 51.701 39.8356 50.9794 39.5158 51.045C37.1517 51.5265 34.872 52.3555 32.7508 53.505C32.7354 53.5173 32.723 53.5329 32.7145 53.5506C32.7059 53.5684 32.7015 53.5878 32.7015 53.6075C32.7015 53.6272 32.7059 53.6466 32.7145 53.6644C32.723 53.6821 32.7354 53.6977 32.7508 53.71C35.5224 56.0716 37.2116 58.4496 37.7856 60.7784C37.8348 60.9752 38.0808 60.7784 38.1628 60.7784C39.2042 60.2208 41.5494 58.9252 41.8282 59.6222C41.902 59.7944 41.738 60.0732 41.2214 60.311C39.0648 61.2786 34.1612 63.7304 33.3494 64.288C31.0042 66.8218 27.7734 70.1428 26.7894 73.7672C25.2232 73.9394 20.2294 74.5872 4.26399 76.6454C4.16612 76.6454 4.07227 76.6843 4.00307 76.7535C3.93387 76.8227 3.89499 76.9165 3.89499 77.0144C3.89499 77.1123 3.93387 77.2061 4.00307 77.2753C4.07227 77.3445 4.16612 77.3834 4.26399 77.3834C4.34599 77.3834 3.49319 77.4654 26.568 74.7266C26.564 74.8004 26.564 74.8743 26.568 74.948C24.3294 93.357 11.3488 93.9638 18.368 102.115C18.6146 102.403 18.9536 102.597 19.3274 102.664C22.6894 103.295 25.6168 101.409 27.0682 100.204C27.155 100.106 27.2743 100.043 27.4039 100.027C27.5335 100.01 27.6648 100.041 27.7734 100.114C27.876 100.178 27.963 100.265 28.0282 100.367C28.0934 100.469 28.1352 100.584 28.1506 100.704C27.9948 101.434 26.5844 102.639 25.8792 103.008C24.674 103.638 23.3432 103.991 21.9842 104.042C21.9224 104.044 21.8622 104.062 21.8089 104.093C21.7556 104.124 21.7107 104.168 21.6783 104.221C21.6459 104.273 21.627 104.333 21.6231 104.395C21.6192 104.457 21.6306 104.518 21.6562 104.575C22.6402 106.731 24.9854 107.338 28.4458 106.321C34.1858 104.624 33.2018 95.6038 41.738 92.8076C44.8247 91.8035 47.4984 89.8177 49.3519 87.1531C51.2053 84.4884 52.1368 81.2908 52.0044 78.0476C51.9552 77.0636 52.8244 77.4326 52.8982 77.941C53.2807 81.0164 52.6625 84.1332 51.1352 86.8298C49.5432 89.5595 47.1892 91.7652 44.362 93.1766C44.3081 93.2012 44.2603 93.2371 44.2216 93.2819C44.183 93.3268 44.1545 93.3794 44.1381 93.4363C44.1218 93.4932 44.1179 93.5529 44.1268 93.6114C44.1357 93.6699 44.1572 93.7258 44.1898 93.7752C45.4854 95.7678 47.2648 100.835 46.8302 106.625C46.3136 113.381 44.6982 116.169 41.2624 119.868C37.8266 123.566 36.9656 126.895 41.5822 128.715C46.8712 130.806 55.6698 129.273 67.7156 124.156C67.8796 124.484 68.347 125.394 68.5356 125.739C64.0174 127.772 49.3148 133.808 41.4264 130.208C41.3905 130.19 41.3514 130.18 41.3114 130.178C41.2714 130.176 41.2314 130.182 41.1938 130.195C41.1562 130.209 41.1218 130.23 41.0927 130.258C41.0637 130.286 41.0405 130.319 41.0246 130.355C40.7622 130.929 42.476 131.175 48.175 145.739C48.2381 145.899 48.3364 146.044 48.4627 146.162C48.589 146.279 48.74 146.367 48.9048 146.419C61.2048 150.249 75.9648 147.928 88.437 137.473C88.6912 137.262 88.8697 136.974 88.9454 136.653C89.8556 133.324 92.2254 124.476 90.1754 111.233C90.1621 111.185 90.1332 111.142 90.0932 111.111C90.0532 111.081 90.0043 111.064 89.954 111.064C89.9037 111.064 89.8548 111.081 89.8148 111.111C89.7748 111.142 89.7459 111.185 89.7326 111.233C88.5682 114.702 83.3612 118.498 78.6544 120.77V119.269C86.5264 114.579 90.1344 110.577 89.3144 107.371C88.4944 105.042 85.9688 104.427 84.542 104.271C84.2662 104.24 84.0066 104.126 83.7983 103.942C83.59 103.759 83.4431 103.516 83.3776 103.246C83.1316 102.238 82.5576 99.7694 82.1312 98.2688C90.2 94.8248 95.1692 90.2492 96.8666 84.6076ZM23.2798 96.4238C22.2712 96.4238 22.2466 94.0212 23.2798 94.0212C24.313 94.0212 24.3048 96.4238 23.2798 96.4238ZM33.0542 80.5814C32.7308 84.6513 31.0402 88.492 28.2572 91.4792C28.2067 91.5283 28.139 91.5558 28.0686 91.5558C27.9982 91.5558 27.9305 91.5283 27.88 91.4792C27.6914 91.2988 27.8308 91.1512 28.1178 90.6592C30.504 86.797 31.7668 84.4272 32.5376 80.4748C32.5517 80.4063 32.5925 80.3462 32.6509 80.3078C32.7094 80.2693 32.7807 80.2557 32.8492 80.2698C32.9177 80.2839 32.9778 80.3247 33.0162 80.3831C33.0547 80.4416 33.0683 80.5129 33.0542 80.5814ZM36.3916 77.818C36.3489 77.7916 36.3173 77.7504 36.3029 77.7023C36.2886 77.6542 36.2923 77.6024 36.3136 77.5569C36.3348 77.5114 36.372 77.4753 36.4182 77.4554C36.4643 77.4355 36.5161 77.4332 36.5638 77.449C40.6064 78.7364 42.886 74.9316 40.4752 74.2182C39.6834 74.0457 38.8571 74.1328 38.1186 74.4666C37.3802 74.8003 36.7689 75.3631 36.3752 76.0714C36.2686 76.3256 35.8668 76.1616 35.9242 75.9238C36.572 73.1604 40.9918 72.488 42.0086 74.5134C43.1402 76.834 38.9992 79.458 36.3916 77.818ZM37.9168 75.9812C38.5482 76.383 38.0972 77.4572 37.474 77.0554C36.8508 76.6536 37.2854 75.5794 37.9168 75.9812ZM38.7368 75.9238C38.7495 75.7777 38.8046 75.6385 38.8952 75.5232C38.9858 75.408 39.1081 75.3216 39.247 75.2747C39.3859 75.2278 39.5355 75.2224 39.6775 75.2591C39.8194 75.2959 39.9476 75.3732 40.0463 75.4817C40.145 75.5901 40.2099 75.725 40.2332 75.8698C40.2564 76.0146 40.237 76.163 40.1772 76.2969C40.1175 76.4308 40.02 76.5444 39.8967 76.6238C39.7734 76.7031 39.6296 76.7448 39.483 76.7438C39.3761 76.7477 39.2696 76.7288 39.1706 76.6884C39.0715 76.648 38.9822 76.587 38.9085 76.5095C38.8349 76.432 38.7785 76.3396 38.7433 76.2387C38.708 76.1377 38.6946 76.0304 38.704 75.9238H38.7368ZM50.8072 58.7038C50.7416 58.7858 50.635 58.7038 50.4792 58.7038C50.3234 58.7038 50.2004 58.7038 50.1594 58.6054C48.7478 55.6589 46.9679 52.9035 44.8622 50.4054C44.5916 50.1102 43.7716 49.2246 43.3124 49.282C42.0414 49.4542 43.3124 57.851 43.583 59.2286C43.583 59.3762 43.4272 59.3926 43.2632 59.4418C43.2495 59.4497 43.2339 59.4539 43.2181 59.4539C43.2023 59.4539 43.1867 59.4497 43.173 59.4418C42.8532 59.2778 41.4018 51.2418 42.353 49.1754C44.28 45.4608 51.0204 58.384 50.7744 58.7202L50.8072 58.7038ZM123.82 87.8384C123.871 87.8387 123.921 87.8575 123.959 87.8913C123.998 87.9251 124.023 87.9718 124.03 88.0226C124.037 88.0735 124.025 88.1251 123.997 88.1681C123.969 88.2111 123.927 88.2425 123.877 88.2566C122.369 88.56 116.727 90.1016 115.333 90.4788C115.538 91.512 115.587 91.5776 115.44 91.6104C111.618 92.6272 111.774 92.6354 111.717 92.4796L111.413 91.553C108.215 92.4386 105.386 93.2422 101.967 94.3328C101.927 94.3414 101.885 94.3385 101.846 94.3245C101.807 94.3105 101.773 94.2859 101.747 94.2534C101.722 94.221 101.706 94.1821 101.701 94.1411C101.696 94.1 101.703 94.0585 101.721 94.0212C101.942 93.5046 111.135 90.9872 111.217 90.9626C110.946 90.1426 110.864 90.0524 111.02 89.995C112.278 89.5268 113.576 89.1755 114.898 88.9454C114.931 88.9404 114.964 88.9477 114.991 88.9659C115.019 88.9841 115.038 89.0119 115.046 89.0438C115.235 89.9868 115.185 89.8638 115.276 89.8638C117.121 89.38 122.049 88.068 123.82 87.8384ZM121.729 81.0078C121.844 81.0078 122.221 81.1308 122.246 81.303C122.246 81.303 122.246 81.4588 122.073 81.4998C112.652 83.1972 108.699 84.5174 100.835 86.9036C100.54 86.9938 100.384 86.5592 100.598 86.4854C107.467 84.0432 114.538 82.2103 121.729 81.0078ZM111.577 79.2776H111.668C111.881 79.7208 112.038 80.1891 112.135 80.6716C110.921 80.9668 109.716 81.2784 108.543 81.6146C108.199 79.827 108.183 79.9746 108.265 79.8926C108.609 80.5486 109.085 80.5322 109.347 80.1796C109.459 80.258 109.596 80.2898 109.731 80.2684C109.866 80.247 109.987 80.174 110.069 80.0648C110.19 80.1351 110.334 80.1557 110.47 80.122C110.606 80.0883 110.724 80.0032 110.798 79.8844C111.184 80.073 111.463 79.7122 111.577 79.2776ZM111.282 78.1132C111.364 78.5232 111.233 79.7532 110.905 79.5646C110.951 79.4142 110.987 79.2608 111.012 79.1054C111.015 79.0882 111.015 79.0705 111.011 79.0533C111.007 79.0362 111 79.0199 110.991 79.0054C110.981 78.991 110.968 78.9786 110.953 78.969C110.939 78.9594 110.922 78.9528 110.905 78.9496C110.888 78.9464 110.87 78.9466 110.853 78.9502C110.836 78.9538 110.819 78.9607 110.805 78.9706C110.791 78.9805 110.778 78.9932 110.769 79.0079C110.759 79.0226 110.752 79.039 110.749 79.0562C110.667 79.458 110.495 79.9992 110.2 79.7204C110.255 79.5612 110.291 79.3961 110.306 79.2284C110.305 79.198 110.294 79.1689 110.274 79.1461C110.254 79.1233 110.226 79.1082 110.196 79.1033C110.166 79.0985 110.135 79.1042 110.109 79.1196C110.083 79.1349 110.063 79.1589 110.052 79.1874C109.962 79.6138 109.765 80.1632 109.486 79.827C109.534 79.6799 109.57 79.529 109.593 79.376C109.593 79.3369 109.577 79.2993 109.55 79.2716C109.522 79.244 109.485 79.2284 109.445 79.2284C109.406 79.2284 109.369 79.244 109.341 79.2716C109.313 79.2993 109.298 79.3369 109.298 79.376C109.183 80.114 108.888 80.4174 108.568 79.7286C108.607 79.7161 108.642 79.6924 108.669 79.6604C108.695 79.6283 108.711 79.5894 108.716 79.5482C108.716 79.1874 108.478 78.31 108.183 78.4494C108.061 78.4985 107.943 78.556 107.83 78.6216C107.83 78.2362 108.371 77.8016 108.338 77.1702C108.927 77.1225 109.506 76.9956 110.06 76.793C110.274 77.3424 111.151 77.4244 111.282 78.1132ZM110.306 76.26C109.285 76.6283 108.202 76.7954 107.117 76.752L106.6 75.5056C107.878 75.6144 109.161 75.3764 110.315 74.8168C110.29 75.2842 110.298 75.7516 110.306 76.26ZM98.9494 45.2886C98.81 45.3542 98.482 45.4526 98.4902 45.2886C98.5533 44.7391 98.5116 44.1826 98.3672 43.6486C98.4895 43.6082 98.6076 43.556 98.7198 43.4928C98.9149 44.0702 98.993 44.6807 98.9494 45.2886ZM95.12 40.0816C97.4078 40.59 98.7854 41.5576 98.687 41.9758C98.5886 42.394 96.5386 42.4842 94.587 42.0332C89.5194 40.8196 90.2738 38.991 95.12 40.0816ZM90.8724 41.1476L90.9216 40.7622C91.7416 42.23 97.4816 43.3616 98.687 42.4678C98.6132 42.968 98.4984 43.1074 98.2852 43.1976C96.6124 43.9274 90.651 42.271 90.9052 41.1476H90.8724ZM97.4324 43.7798H97.8834C97.9572 44.1324 98.1048 45.346 97.8834 45.4198C97.7409 45.4566 97.5913 45.4566 97.4488 45.4198C97.5045 44.8746 97.5045 44.325 97.4488 43.7798H97.4324ZM96.4484 43.7798H96.9076C96.9892 44.3113 96.9269 44.8549 96.7272 45.3542C96.5999 45.3623 96.4726 45.3368 96.3582 45.2804C96.4352 44.784 96.4709 44.2821 96.4648 43.7798H96.4484ZM95.981 43.7798C95.9568 44.2615 95.8993 44.741 95.8088 45.2148C95.6767 45.1985 95.5471 45.1655 95.4234 45.1164C95.4234 44.9278 95.571 44.0586 95.612 43.7388L95.981 43.7798ZM95.161 43.6814C95.161 43.993 95.0298 44.7556 94.9724 44.9934C94.8084 44.9934 94.4886 44.9934 94.5132 44.9032C94.5378 44.813 94.71 43.9274 94.7592 43.6158L95.161 43.6814ZM94.2426 43.46C94.2018 43.8871 94.1361 44.3115 94.0458 44.731C94.0458 44.8212 93.8408 44.8376 93.7014 44.7966C93.562 44.7556 93.5456 44.7966 93.8572 43.378L94.2426 43.46ZM93.4226 43.2714C93.3406 43.6404 93.193 44.3292 93.1356 44.5178C93.0782 44.7064 92.6846 44.5178 92.7256 44.3702C92.7256 44.3702 92.9552 43.5502 93.07 43.1648L93.4226 43.2714ZM92.6026 42.9926C92.5501 43.4149 92.434 43.8269 92.2582 44.2144C92.194 44.2214 92.129 44.214 92.068 44.1927C92.007 44.1714 91.9515 44.1368 91.9056 44.0914C91.8154 44.0094 91.9056 44.0914 92.2172 42.8368L92.6026 42.9926ZM91.7826 42.6072C91.695 43.0024 91.5658 43.3872 91.3972 43.7552C91.2658 43.7196 91.1467 43.6487 91.0528 43.5502C91.0528 43.4764 91.389 42.5006 91.43 42.3858C91.5226 42.4771 91.6212 42.562 91.7252 42.64L91.7826 42.6072ZM90.7412 41.7216C90.8174 41.8294 90.9054 41.9284 91.0036 42.0168L90.569 43.2058C90.4414 43.1962 90.3179 43.1569 90.2082 43.091C90.2788 42.6163 90.4402 42.1597 90.6838 41.7462L90.7412 41.7216ZM89.9212 40.6474C88.847 42.4186 88.2812 43.3944 87.0102 45.223C86.2626 44.3776 85.6007 43.4602 85.034 42.4842C90.4132 40.467 89.6096 40.385 89.9048 40.672L89.9212 40.6474ZM90.8888 32.636C90.7524 32.4947 90.5827 32.3898 90.3952 32.3312C90.2078 32.2725 90.0086 32.2618 89.8159 32.3002C89.6233 32.3386 89.4434 32.4247 89.2927 32.5507C89.142 32.6767 89.0254 32.8386 88.9536 33.0214L88.6092 32.8902C88.527 31.6922 88.5931 30.4886 88.806 29.3068C89.626 29.8152 90.6182 30.4876 91.635 31.0944C91.4628 31.4552 91.1922 31.98 90.8724 32.6606L90.8888 32.636ZM90.774 20.582C91.0679 20.6903 91.3322 20.8663 91.5454 21.0958C91.7586 21.3254 91.9146 21.6019 92.0009 21.9031C92.0872 22.2042 92.1012 22.5215 92.0419 22.8291C91.9826 23.1366 91.8516 23.4259 91.6596 23.6734C90.2246 25.6742 87.3464 24.19 88.0598 21.7054C88.1297 21.4458 88.2653 21.2086 88.4534 21.0166C88.7819 20.773 89.1616 20.6073 89.5636 20.532C89.9657 20.4567 90.3795 20.4738 90.774 20.582ZM89.954 19.147C89.954 18.9174 90.2738 18.901 90.4296 18.9092C91.0774 18.9502 91.307 19.188 90.7084 20.0736C90.4748 20.0032 90.2293 19.9808 89.9868 20.008C89.9336 19.7243 89.917 19.4349 89.9376 19.147H89.954ZM92.373 19.967C92.2031 20.2417 91.9623 20.4655 91.676 20.6148C91.5017 20.4649 91.3087 20.3381 91.102 20.2376C91.2141 19.9432 91.3688 19.667 91.5612 19.4176C91.5998 19.3685 91.651 19.3307 91.7093 19.3085C91.7677 19.2862 91.831 19.2802 91.8925 19.2912C91.954 19.3021 92.0114 19.3296 92.0584 19.3706C92.1055 19.4117 92.1406 19.4648 92.1598 19.5242C92.1926 19.68 92.3812 19.8932 92.3566 19.9588L92.373 19.967ZM93.193 21.3938C93.2914 21.7218 92.9142 21.7792 92.4714 21.8612C92.3719 21.5311 92.2166 21.2205 92.0122 20.9428C93.0208 19.9998 92.9142 20.5574 93.1848 21.3856L93.193 21.3938ZM90.61 25.6414C90.4132 25.8054 89.2898 25.9448 89.0602 25.6414C88.8306 25.338 89.0602 25.1002 89.1012 24.8952C89.5752 25.0913 90.1025 25.1174 90.5936 24.969C90.6592 25.2478 90.7658 25.4938 90.6018 25.6332L90.61 25.6414ZM88.4124 20.5C88.2648 20.3524 87.8712 19.9506 87.9614 19.762C88.3278 19.4003 88.8034 19.1696 89.3144 19.106C89.4948 19.106 89.5604 19.885 89.5686 20.0654C89.1591 20.1357 88.7668 20.2832 88.4124 20.5ZM88.0762 20.7788C87.8798 20.9986 87.7343 21.259 87.6498 21.5414C87.453 22.1154 87.5842 22.0662 87.4366 22.0416C87.1868 22.0277 86.9419 21.9665 86.715 21.8612C86.264 21.4266 87.0266 20.2212 87.535 20.3524C87.7535 20.4539 87.9405 20.6126 88.0762 20.8116V20.7788ZM87.4612 22.4926C87.427 22.8599 87.5133 23.2284 87.7072 23.5422C87.4321 23.756 87.0961 23.8766 86.7478 23.8866C86.6215 23.823 86.5108 23.7323 86.4236 23.6209C86.3365 23.5095 86.275 23.3802 86.2437 23.2423C86.2123 23.1044 86.2119 22.9613 86.2423 22.8231C86.2728 22.685 86.3334 22.5554 86.4198 22.4434C86.7658 22.3473 87.1345 22.3763 87.4612 22.5254V22.4926ZM87.0922 24.395C87.1496 24.272 87.3382 24.2228 87.9122 23.8866C88.3222 24.5508 88.5436 24.6574 88.683 24.7066C88.6174 24.9608 88.56 25.3216 88.3222 25.379C87.9671 25.3599 87.629 25.2212 87.3628 24.9854C87.1496 24.7886 87.0266 24.5426 87.0922 24.4278V24.395ZM91.6678 25.42C91.3152 25.5676 91.0938 25.2232 90.979 24.8542C91.425 24.6478 91.8114 24.3319 92.1024 23.9358C92.2746 24.0424 92.5698 24.1736 92.578 24.2474C92.66 24.6 92.1434 25.1822 91.6678 25.42ZM92.8978 23.78C92.6867 23.7792 92.484 23.6969 92.332 23.5504C92.5127 23.173 92.5864 22.7532 92.5452 22.3368C92.783 22.222 93.2258 22.0498 93.316 22.3368C93.562 22.96 93.1684 23.7062 92.8978 23.78ZM81.0406 24.0506C80.6701 24.498 80.1652 24.8139 79.6008 24.9513C79.0365 25.0887 78.4428 25.0402 77.9082 24.8132C77.6868 24.723 77.8426 24.395 78.0558 24.4606C78.5121 24.6383 79.0137 24.6632 79.4853 24.5316C79.957 24.4001 80.3732 24.1191 80.6716 23.7308C81.6171 22.2306 82.6579 20.7927 83.7876 19.4258C85.6244 17.3512 87.371 16.482 89.462 16.5886C91.553 16.6952 94.1852 17.6874 94.9888 19.6472C95.735 21.4184 94.9888 24.4032 94.5378 26.4368C93.972 29.0116 94.0704 29.971 96.3418 31.1026C96.5304 31.201 96.391 31.5618 96.186 31.488C95.4685 31.2384 94.8236 30.816 94.3082 30.258C92.414 28.1178 95.7186 22.9436 94.4066 19.8276C93.685 18.04 91.3316 17.2692 89.38 17.22C87.0348 17.1052 85.526 18.4418 84.2386 19.9014C82.5986 21.7218 81.4998 23.4684 81.0406 24.0178V24.0506ZM81.9262 26.9616C84.2077 27.2299 86.4098 27.964 88.396 29.1182C87.9562 30.4072 87.888 31.7939 88.1992 33.1198C88.1992 33.2838 88.3222 33.2838 88.9618 33.5298C89.0098 33.5468 89.0625 33.5453 89.1095 33.5256C89.1565 33.5059 89.1945 33.4694 89.216 33.4232C89.2804 33.2317 89.4042 33.0656 89.5693 32.9492C89.7344 32.8327 89.9323 32.7718 90.1344 32.7754C91.2906 32.923 90.2656 35.5634 88.9126 34.522C88.8699 34.4999 88.8208 34.4936 88.7739 34.504C88.727 34.5145 88.6853 34.541 88.656 34.5791C88.6267 34.6172 88.6117 34.6644 88.6136 34.7124C88.6156 34.7604 88.6343 34.8062 88.6666 34.8418C88.7122 34.8845 88.7616 34.923 88.8142 34.9566C88.8565 36.7429 89.0016 38.5252 89.2488 40.2948C87.9942 40.795 84.6732 42.1562 84.6732 42.1562C84.2807 41.6653 83.9755 41.1106 83.7712 40.5162V38.5154C83.7672 38.4631 83.7441 38.4142 83.7063 38.3779C83.6684 38.3416 83.6186 38.3205 83.5662 38.3186C78.9496 38.048 79.5892 30.9222 81.9262 26.9288V26.9616ZM82.9102 38.7122L83.3366 38.7614V39.5814C83.2628 39.5814 82.7052 39.6388 82.6396 39.647C82.82 39.1304 82.9594 38.9336 82.9102 38.6794V38.7122ZM82.7708 40.016H83.1644C83.3213 40.891 83.7124 41.7071 84.296 42.3776L82.1886 43.665C82.2337 42.4188 82.4291 41.1825 82.7708 39.9832V40.016ZM75.3416 36.4736C75.5466 35.8422 78.4986 36.3096 80.9094 37.4576C81.3207 37.9555 81.872 38.3183 82.492 38.499C82.656 38.6712 82.6478 38.909 82.2788 38.9828C80.729 39.2534 75.0464 37.3592 75.3416 36.4408V36.4736ZM74.9234 37.2034L75.0628 36.8672C75.7434 38.1628 81.1308 39.8848 82.5084 39.237L82.3772 39.5322C82.3116 39.7454 81.8442 39.8766 81.1226 39.8356C77.6786 39.36 74.7594 37.72 74.9234 37.1706V37.2034ZM82 40.1308C81.9436 40.518 81.8531 40.8994 81.7294 41.2706C81.6809 41.3163 81.6217 41.3493 81.5573 41.3664C81.4929 41.3836 81.4252 41.3845 81.3604 41.369C81.4178 41.2214 81.5326 40.549 81.5982 40.1554L82 40.1308ZM81.0734 40.1308C81.0048 40.5271 80.9116 40.9187 80.7946 41.3034C80.7208 41.3772 80.5158 41.3526 80.4174 41.3034C80.483 41.1148 80.6142 40.4834 80.7044 40.0816L81.0734 40.1308ZM80.2042 40.057C80.1479 40.4325 80.0431 40.7991 79.8926 41.1476C79.7765 41.1925 79.6479 41.1925 79.5318 41.1476C79.5892 41 79.7368 40.3932 79.8188 40.016L80.2042 40.057ZM79.3268 39.9094C79.248 40.2824 79.1354 40.6474 78.9906 41C78.8572 41.0018 78.7262 40.9647 78.6134 40.8934C78.6626 40.7622 78.8512 40.1882 78.966 39.8192L79.3268 39.9094ZM78.5724 39.7126C78.5724 39.7946 78.2362 40.8032 78.1132 40.795C78.0075 40.7958 77.9033 40.7705 77.8098 40.7212L78.2854 39.6306L78.5724 39.7126ZM77.7524 39.442C77.6225 39.8451 77.4607 40.2372 77.2686 40.6146C77.1449 40.6042 77.0247 40.5679 76.916 40.508C77.039 40.2784 77.2768 39.688 77.4162 39.3108L77.7524 39.442ZM76.4814 38.8598L76.8586 39.0566C76.7066 39.4907 76.5057 39.9061 76.26 40.2948C76.1444 40.254 76.032 40.2047 75.9238 40.1472L76.4814 38.8598ZM75.358 39.8602C75.2275 39.8168 75.1034 39.7561 74.989 39.6798L75.6286 38.3268L76.014 38.5892C75.8691 39.0562 75.6444 39.4946 75.3498 39.8848L75.358 39.8602ZM74.9562 37.761L75.235 38.0152L74.62 39.3026C74.5118 39.2257 74.4198 39.1282 74.3494 39.0156L74.9562 37.761ZM46.8302 24.7722C47.0598 24.6902 48.1258 25.4118 48.4702 25.6496C48.2455 25.7409 48.0438 25.881 47.8798 26.0596C47.7978 25.9776 46.74 24.9772 46.8302 24.7722ZM47.191 25.9694C47.3786 26.0332 47.5419 26.1535 47.6584 26.3138C47.5473 26.4581 47.4588 26.6185 47.396 26.7894C46.6826 26.363 47.0516 25.9694 47.191 25.9694ZM47.9126 28.4294C47.8388 28.618 46.9122 28.5032 46.7154 28.1014C46.693 28.0469 46.6864 27.9872 46.6966 27.9291C46.7068 27.871 46.7332 27.817 46.7728 27.7734C47.0644 27.9916 47.4106 28.125 47.7732 28.1588C47.9372 28.3228 47.9208 28.4048 47.9126 28.4212V28.4294ZM46.8138 26.9698C46.8294 26.9459 46.8499 26.9255 46.8739 26.91C46.898 26.8944 46.9249 26.8841 46.9532 26.8796C47.0702 26.979 47.1965 27.0669 47.3304 27.142C47.3373 27.1975 47.357 27.2506 47.388 27.2972C47.419 27.3438 47.4604 27.3825 47.5089 27.4103C47.5574 27.4382 47.6117 27.4543 47.6675 27.4576C47.7234 27.4608 47.7792 27.451 47.8306 27.429C48.38 28.3556 46.4284 27.5274 46.8138 26.9616V26.9698ZM48.0602 28.7492C48.1476 28.6616 48.2006 28.5455 48.2096 28.4221C48.2186 28.2987 48.1831 28.1762 48.1094 28.0768C48.3308 27.9046 48.2488 27.5438 48.1094 27.2568C48.2198 27.1886 48.3265 27.1147 48.4292 27.0354C48.3968 27.2194 48.4074 27.4083 48.46 27.5875C48.5126 27.7667 48.6059 27.9313 48.7326 28.0686C48.8556 28.2326 49.0524 28.0686 48.9212 27.8882C48.8208 27.6751 48.7729 27.4411 48.7815 27.2057C48.7901 26.9704 48.8548 26.7404 48.9704 26.5352C48.9872 26.5004 48.9912 26.4609 48.9818 26.4234C48.9723 26.386 48.9499 26.3531 48.9185 26.3306C48.8871 26.308 48.8488 26.2973 48.8103 26.3002C48.7718 26.3031 48.7356 26.3196 48.708 26.3466C46.5842 28.6262 47.97 25.1412 49.4378 25.9448C49.856 26.1744 49.979 26.7074 49.7904 27.4864C49.3718 27.8698 49.0465 28.3438 48.8392 28.8722C48.5725 28.8992 48.3034 28.8539 48.0602 28.741V28.7492ZM49.0688 29.5036C49.1444 29.0811 49.317 28.682 49.5732 28.3376C49.8293 27.9933 50.1619 27.7131 50.5448 27.5192L51.3648 27.7898C50.5022 28.3601 49.8601 29.2077 49.5444 30.1924L49.0688 29.5036ZM73.1358 45.9856C73.1567 45.9394 73.1597 45.887 73.1442 45.8387C73.1287 45.7903 73.0959 45.7495 73.052 45.724C73.0081 45.6984 72.9564 45.6901 72.9067 45.7006C72.857 45.711 72.813 45.7396 72.7832 45.7806C71.9754 47.1269 71.2551 48.5238 70.6266 49.9626C61.5 43.7552 53.4804 35.6126 49.8806 30.627C50.0856 29.5118 51.291 28.1014 51.9798 27.9702C59.04 30.2744 67.4696 33.8004 74.7594 36.7442C74.661 37.023 74.497 37.2116 74.7594 37.5642L74.0788 38.9008C73.9722 39.1222 74.333 39.442 74.5298 39.5814C74.5594 39.5995 74.5935 39.6091 74.6282 39.6091C74.6629 39.6091 74.697 39.5995 74.7266 39.5814C74.6992 39.6258 74.6892 39.6788 74.6982 39.7302C74.7073 39.7815 74.7349 39.8278 74.7758 39.8602C74.9333 39.976 75.1075 40.0672 75.2924 40.1308C75.6122 40.221 75.85 39.5732 75.6286 40.0652C75.6098 40.1125 75.6086 40.165 75.6252 40.2131C75.6417 40.2612 75.6749 40.3018 75.7188 40.3276C75.8883 40.4276 76.0703 40.5048 76.26 40.5572C76.4158 40.5572 76.6126 40.4342 77.1784 39.0648C76.6618 40.4424 76.4486 40.4998 76.6372 40.7048C76.8134 40.816 77.0124 40.8861 77.2194 40.9098C77.2684 40.9123 77.3173 40.9014 77.3606 40.8783C77.4039 40.8552 77.4402 40.8207 77.4654 40.7786C77.4654 41.082 78.1788 41.0984 78.0968 41.0984C78.1398 41.0966 78.182 41.0854 78.2202 41.0655C78.2585 41.0457 78.2919 41.0177 78.3182 40.9836C78.3838 41.2132 79.0316 41.451 79.2038 41.1804C79.2038 41.5002 79.9172 41.5822 80.0976 41.3034C80.0074 41.7134 80.9176 41.779 81.0406 41.3772C81.0406 41.7708 81.8606 41.7462 82 41.2624C81.7376 42.5006 81.549 43.993 81.8196 44.2144C81.959 44.321 82.0164 44.2144 82.7626 43.7634L83.435 44.9688C80.155 51.988 80.5404 59.3434 84.4928 67.4532C84.5075 67.4763 84.5271 67.4959 84.5502 67.5106C85.8637 68.0956 87.2391 68.5302 88.6502 68.8062C88.6796 68.8144 88.7109 68.8114 88.7382 68.7977C88.7655 68.7841 88.7867 68.7608 88.7978 68.7324C89.3114 67.4934 89.6722 66.1965 89.872 64.8702C89.8791 64.8461 89.8791 64.8205 89.872 64.7964C86.3542 59.6632 82.8528 51.4632 84.5502 45.2476L85.7802 44.4276C86.0992 44.9242 86.4824 45.3764 86.92 45.7724C86.9583 45.81 87.0098 45.831 87.0635 45.831C87.1171 45.831 87.1687 45.81 87.207 45.7724C88.3629 44.2588 89.3862 42.6484 90.2656 40.959L90.5362 41.0328C90.4908 41.1853 90.4908 41.3477 90.5362 41.5002C89.7162 42.968 89.831 43.2878 90.0278 43.4026C90.2007 43.5014 90.3946 43.5576 90.5936 43.5666C90.7822 43.5666 90.7822 43.3534 90.733 43.5666C90.6838 43.7798 91.102 44.0422 91.3644 44.0914C91.3988 44.0975 91.4342 44.0946 91.4672 44.0831C91.5002 44.0716 91.5298 44.0519 91.553 44.0258C91.553 44.4522 92.2254 44.731 92.4468 44.4276C92.4635 44.5145 92.5003 44.5962 92.5542 44.6663C92.6082 44.7363 92.6779 44.7928 92.7576 44.831C92.8373 44.8693 92.9249 44.8884 93.0134 44.8866C93.1018 44.8849 93.1886 44.8625 93.2668 44.8212C93.3099 44.9062 93.3721 44.9801 93.4486 45.0369C93.5251 45.0937 93.6138 45.132 93.7076 45.1487C93.8015 45.1654 93.8979 45.1601 93.9893 45.1331C94.0807 45.1062 94.1646 45.0583 94.2344 44.9934C94.3246 45.2886 94.8822 45.3624 95.1528 45.1902C95.2102 45.4034 95.7022 45.4936 95.858 45.4936C95.9123 45.4859 95.9634 45.4632 96.0056 45.428C96.0794 45.3624 96.104 45.1738 96.0794 45.3132C96.0794 45.5756 96.4648 45.6822 96.6944 45.6822C96.924 45.6822 97.129 45.2312 97.1782 44.8622C97.1919 45.0013 97.1919 45.1413 97.1782 45.2804C97.1126 45.5428 97.5062 45.6412 97.7768 45.6412C97.875 45.6565 97.9754 45.637 98.0608 45.5861C98.1461 45.5352 98.211 45.4561 98.2442 45.3624C98.3262 45.8134 99.0642 45.6576 99.2446 45.3624C107.502 52.7424 109.905 63.222 110.298 74.292C109.065 74.8403 107.718 75.0877 106.37 75.0136C100.786 64.6406 95.8088 62.7136 90.3148 54.079C90.159 53.7756 89.7818 54.079 89.954 54.3414C93.234 59.983 96.309 62.4676 100.712 67.7238C100.712 68.4454 100.483 73.0374 99.4824 74.5298C99.0068 75.2514 98.1212 75.4072 96.9322 75.5384C92.4878 76.0222 84.255 75.3662 74.4478 72.0534C72.9103 68.1224 70.7538 64.4627 68.06 61.213C68.9388 55.9014 70.6519 50.7622 73.1358 45.9856ZM53.5296 58.4824C53.5304 58.4636 53.5353 58.4452 53.5439 58.4284C53.5525 58.4117 53.5646 58.3969 53.5794 58.3853C53.5941 58.3736 53.6113 58.3653 53.6296 58.3608C53.6479 58.3563 53.6669 58.3559 53.6854 58.3594C62.4758 60.3766 69.044 67.2974 73.1604 75.235C73.1743 75.2666 73.1752 75.3023 73.1629 75.3346C73.1506 75.3668 73.1262 75.3929 73.0948 75.4072C72.57 75.6368 72.611 75.6614 72.4798 75.4072C69.659 70.397 63.4598 61.6312 53.6198 59.2122C53.5132 59.204 53.546 59.0892 53.5296 58.4824ZM76.9242 131.29C76.26 132.217 73.144 132.93 72.0042 133.176C69.413 133.627 68.6176 133.111 70.889 131.134C71.1218 131.34 71.3309 131.571 71.5122 131.823C71.6762 132.102 72.2338 131.758 72.0698 131.479C71.8796 131.202 71.6566 130.948 71.4056 130.724C71.5486 130.59 71.6992 130.464 71.8566 130.347C72.1161 130.603 72.3573 130.877 72.5782 131.167C72.7504 131.438 73.2424 131.167 73.0866 130.864C72.8682 130.564 72.618 130.289 72.3404 130.044C72.7832 129.716 72.7176 129.585 72.898 129.462C73.4599 129.731 74.0827 129.849 74.7042 129.803C75.3257 129.757 75.9243 129.549 76.4404 129.199C76.7848 129.904 77.2112 130.888 76.9242 131.29ZM72.3486 126.756C73.5515 126.734 74.7426 126.515 75.8746 126.108C76.014 126.805 76.137 127.567 76.2354 128.273C75.7425 128.554 75.1978 128.732 74.634 128.797C74.0703 128.862 73.4992 128.812 72.9554 128.65L72.3486 126.756ZM76.7602 99.5316C76.2731 98.1829 75.5877 96.9144 74.7266 95.7678C74.7032 95.7362 74.6737 95.7096 74.6399 95.6896C74.606 95.6695 74.5685 95.6565 74.5296 95.6511C74.4906 95.6458 74.451 95.6483 74.413 95.6584C74.375 95.6686 74.3394 95.6863 74.3084 95.7104C74.1116 95.8826 74.3084 96.1942 74.3084 96.1122C78.351 103.837 77.1784 113.012 77.3342 124.812C75.1832 125.732 72.8584 126.174 70.52 126.108C62.648 108.289 43.0008 89.0684 75.604 75.071C75.8336 74.9726 75.7926 74.661 75.4974 74.661C75.2022 74.661 75.4974 74.9808 74.6774 72.8816C82.8118 75.7844 91.8974 76.7848 96.8584 76.2764C97.1056 79.037 96.8273 81.8194 96.0384 84.4764C93.2258 92.7174 84.9848 96.4402 76.7602 99.5316Z" fill="black"/>
<path id="Vector_8" d="M111.881 90.5116L112.258 91.6514L114.652 91.02L114.406 89.8228C113.552 90.0033 112.709 90.2333 111.881 90.5116Z" fill="black"/>
</g>
</g>
</svg>
