<svg width="164" height="164" viewBox="0 0 164 164" fill="none" xmlns="http://www.w3.org/2000/svg">
<g id="Frame">
<g id="Group">
<path id="Vector" fill-rule="evenodd" clip-rule="evenodd" d="M49.9052 29.069C49.9164 29.0341 49.9142 28.9963 49.899 28.963C49.8838 28.9297 49.8568 28.9031 49.8232 28.8886C49.5349 29.075 49.2155 29.2083 48.8802 29.2822C48.4046 29.3478 47.8716 29.2002 47.806 29.2822C47.7404 29.3642 48.1914 30.1022 48.9786 29.9464C49.2127 29.9358 49.4351 29.8413 49.6052 29.6802C49.7753 29.5191 49.8818 29.3021 49.9052 29.069ZM48.3062 27.2486C48.2973 27.3027 48.3009 27.3581 48.3166 27.4106C48.3323 27.4631 48.3598 27.5114 48.3969 27.5517C48.4341 27.592 48.4799 27.6233 48.531 27.6433C48.582 27.6632 48.637 27.6713 48.6916 27.6668C49.0032 27.6668 49.5116 27.7242 49.5116 27.5192C49.5116 27.3142 49.4624 27.4208 49.0196 27.183C49.1753 26.7586 49.2853 26.3188 49.3476 25.871C49.405 25.4036 49.405 25.379 49.3476 25.338C49.2902 25.297 49.159 25.3872 48.9458 25.6988C48.6316 26.1677 48.4141 26.6946 48.3062 27.2486ZM52.9802 25.2724C53.054 25.133 52.5948 24.6246 51.8076 24.5918C51.4468 24.5918 50.8728 24.7722 50.9876 25.0018C51.1024 25.2314 52.8572 25.4856 52.9802 25.2724ZM48.4456 24.7886C48.5604 24.6082 48.1258 24.2228 47.7978 24.108C47.314 23.9194 46.8712 24.108 46.863 24.2392C46.8548 24.3704 47.2156 24.6164 47.5682 24.7394C47.724 24.7968 48.38 24.928 48.4456 24.7886Z" fill="black"/>
<path id="Vector_2" fill-rule="evenodd" clip-rule="evenodd" d="M159.375 141.999C154.062 139.58 142.828 137.653 135.218 138.572C134.267 138.687 133.307 138.842 132.332 139.023C138.834 130.979 154.398 108.847 154.685 106.772C154.699 106.713 154.701 106.652 154.689 106.593C154.677 106.534 154.652 106.478 154.616 106.429C154.58 106.38 154.534 106.34 154.48 106.312C154.427 106.283 154.368 106.267 154.308 106.264C153.89 106.273 153.475 106.328 153.069 106.428H142.655C141.91 104.943 141.396 103.353 141.13 101.713C141.679 101.056 142.094 100.298 142.352 99.4824C142.777 97.9871 142.973 96.4362 142.934 94.8822C142.592 90.9108 141.268 87.0868 139.08 83.7548C138.076 82.331 136.824 81.1003 135.382 80.1222C133.592 79.112 131.712 78.2719 129.765 77.613L129.314 75.5876C129.672 75.3728 129.989 75.095 130.249 74.7676C131.315 73.3982 130.519 73.4474 131.405 74.6856C131.561 74.8988 131.749 75.0792 132.004 75.0382C132.405 74.9726 133.234 73.9804 133.471 73.6442C133.504 73.6067 133.527 73.5613 133.537 73.5124C133.547 73.4635 133.544 73.4128 133.529 73.3654C133.404 73.0866 133.244 72.8249 133.053 72.5864C133.218 72.6234 133.389 72.6234 133.553 72.5864C133.775 72.5372 133.98 72.5864 134.226 72.406C134.415 72.2912 134.566 72.1237 134.66 71.9241C134.755 71.7244 134.789 71.5014 134.759 71.2826C134.759 70.8152 134.71 70.6594 135.054 70.356C135.428 70.1101 135.69 69.7273 135.784 69.29C135.861 68.6271 135.673 67.9605 135.259 67.4368C135.005 67.1252 134.193 66.7726 134.226 66.6168C134.228 66.1907 134.096 65.7746 133.849 65.4278C133.627 65.108 132.856 65.0916 132.487 64.6078C132.25 64.2552 132.364 63.7878 132.291 63.5254C132.099 62.9151 131.762 62.3607 131.307 61.9106C130.853 61.4604 130.295 61.1281 129.683 60.9424C128.355 60.5242 128.043 60.9424 127.838 61.09C127.633 61.2376 127.682 61.1474 127.084 60.844C126.485 60.5406 126.305 60.9178 125.903 61.008C125.165 61.172 124.911 60.721 123.689 61.6722C122.615 62.4922 123.197 63.468 122.377 63.9682C122.016 64.1896 121.557 64.2552 121.27 64.6406C120.794 65.2392 121.27 65.8706 120.802 66.2806C120.335 66.6906 119.851 66.7152 119.679 67.6664C119.627 67.8835 119.62 68.1089 119.658 68.3288C119.696 68.5488 119.778 68.7587 119.9 68.9456C119.987 69.0379 120.09 69.113 120.204 69.167C120.292 69.1951 120.371 69.246 120.433 69.3146C120.597 69.5524 120.95 71.094 121.909 70.6102C121.909 71.504 121.909 71.0284 121.729 71.1678C121.311 71.3329 120.952 71.6183 120.696 71.9878C120.507 72.2174 120.778 72.8078 120.917 73.021C121.057 73.2342 121.278 73.6442 121.54 73.5704C121.775 73.5069 121.977 73.3577 122.106 73.1522C122.419 74.004 122.968 74.7492 123.689 75.3006L122.959 77.2686C118.039 78.187 118.449 78.2936 116.309 79.3924C116.235 79.2975 116.135 79.2262 116.022 79.1874C115.8 79.1054 115.874 79.1874 115.899 79.007C115.921 78.6488 115.853 78.2908 115.701 77.9657C115.549 77.6405 115.318 77.3586 115.03 77.1456C114.743 76.9631 114.417 76.8533 114.078 76.8258H113.98C113.783 76.4486 113.808 76.0058 113.16 75.6942C112.889 75.5227 112.581 75.4178 112.262 75.3878C111.943 75.3579 111.621 75.4039 111.323 75.522L111.249 75.4318C110.995 75.1706 110.662 75.0014 110.301 74.9509C109.94 74.9004 109.573 74.9715 109.257 75.153C109.169 75.0229 109.055 74.9122 108.922 74.8276C108.79 74.743 108.641 74.6863 108.486 74.661C107.527 74.4068 107.264 75.0054 106.846 75.3088C106.649 75.0136 106.297 75.0464 105.977 75.194C103.607 69.7492 97.2356 55.2106 93.8654 50.348C93.4144 49.7002 92.537 48.4456 91.7908 48.5768C91.0446 48.708 90.1508 50.0036 89.749 50.5694C86.1902 55.1532 79.1382 67.568 76.26 72.693C75.8281 72.2816 75.438 71.8284 75.0956 71.34C75.1326 71.2394 75.1326 71.129 75.0956 71.0284C74.9769 70.7012 74.84 70.3809 74.6856 70.069L74.907 70.0116C74.9889 69.992 75.0605 69.9424 75.1076 69.8725C75.1547 69.8027 75.1738 69.7177 75.1612 69.6344C74.1608 63.3532 70.7332 45.8544 66.4692 41.0492C65.0308 39.4412 63.3941 38.0222 61.5984 36.8262C60.3356 36.0062 57.9412 34.7598 57.8018 34.7024C57.0858 34.4015 56.3413 34.1735 55.5796 34.0218C55.3386 32.907 55.018 31.8108 54.6202 30.7418L54.9892 28.7C55.8132 28.3442 56.6013 27.9103 57.3426 27.4044C57.5485 27.2052 57.7429 26.9944 57.9248 26.773C58.384 26.0842 58.0806 25.3134 58.343 24.7886C58.4496 24.5754 58.8924 24.4442 59.1056 24.0342C59.4686 23.2904 59.5274 22.4345 59.2696 21.648C59.04 21.197 58.384 20.746 58.3102 20.377C58.2364 20.008 58.4332 19.557 58.3102 19.0404C57.9895 18.302 57.4519 17.6785 56.7686 17.2528C56.2602 16.9494 55.7272 17.2036 55.4156 17.138C55.3421 17.0379 55.2567 16.947 55.1614 16.8674C54.6883 16.5306 54.1532 16.291 53.587 16.1622C53.1355 16.1199 52.6804 16.1845 52.2586 16.3508C51.6928 16.4902 51.4386 16.3508 51.0696 15.9244C50.7863 15.4882 50.3775 15.148 49.897 14.9486C49.2738 14.7928 48.913 15.2028 48.6014 15.4078C48.1996 15.1536 47.7404 14.801 47.3878 15.1536C47.3033 15.2431 47.1997 15.3124 47.0847 15.3565C46.9697 15.4005 46.8463 15.418 46.7236 15.4078C46.5046 15.408 46.2884 15.4575 46.0911 15.5526C45.8938 15.6477 45.7204 15.786 45.5838 15.9572C45.5025 16.1002 45.4444 16.2552 45.4116 16.4164C45.1779 16.3267 44.9236 16.3053 44.6782 16.3547C44.4329 16.4041 44.2066 16.5222 44.0258 16.6952C43.7117 17.2287 43.6038 17.8588 43.7224 18.4664C44.0586 20.7214 45.5674 20.3688 45.5756 21.9268C45.5756 22.9682 45.2722 23.862 45.9036 23.903C45.7724 25.2232 45.7888 26.8468 45.7806 28.3064C45.8297 29.3383 46.0485 30.3551 46.4284 31.3158C46.9646 31.9409 47.6668 32.4015 48.4538 32.6442C48.3636 32.923 48.0602 33.784 47.929 34.0546C42.927 33.3986 35.998 32.677 30.34 32.308C29.1346 32.226 20.5984 28.6918 16.7526 27.716C16.3918 27.6258 16.0884 28.0932 15.8916 28.3966C15.1208 27.9046 14.8256 27.9046 14.2516 28.659C14.1186 28.4774 13.9705 28.3073 13.8088 28.1506C13.7634 27.9023 13.6976 27.6582 13.612 27.4208C13.4234 26.9288 11.972 25.543 10.8076 25.8792C10.0286 25.4118 7.40461 24.4688 6.70761 24.9116C6.10081 25.2806 6.48621 26.1088 7.09301 26.4614C7.62663 26.7257 8.17409 26.9611 8.73301 27.1666C8.57874 27.2122 8.43979 27.2989 8.33109 27.4174C8.22238 27.536 8.14802 27.6819 8.11599 27.8396C8.08395 27.9972 8.09546 28.1606 8.14927 28.3122C8.20308 28.4638 8.29716 28.5978 8.42141 28.7C8.32161 28.798 8.24386 28.9162 8.19335 29.0467C8.14284 29.1771 8.12073 29.3169 8.12849 29.4566C8.13625 29.5962 8.1737 29.7327 8.23835 29.8567C8.303 29.9808 8.39336 30.0896 8.50341 30.176C8.69722 30.2934 8.90718 30.3818 9.12661 30.4384C9.26601 31.5208 10.7666 31.8078 11.8326 31.816C11.9392 31.8652 12.218 32.0128 12.423 32.103C12.1852 32.7016 12.2426 32.718 13.5628 33.2346C13.4686 33.4601 13.4051 33.6973 13.3742 33.9398C13.3766 34.0267 13.4012 34.1115 13.4457 34.1861C13.4902 34.2608 13.5531 34.3228 13.6284 34.3662C14.9486 35.3666 25.1084 39.4092 28.9788 41.3526C31.5864 42.6728 34.6368 44.9524 37.3018 46.2726C29.1018 63.2958 29.5118 62.5824 29.7414 62.8202C30.2411 63.4908 30.7892 64.1239 31.3814 64.7144L33.62 66.7972C34.9653 65.9392 36.3939 65.2194 37.884 64.6488C37.8863 64.8045 37.9412 64.9548 38.0398 65.0752C35.383 66.7152 32.7836 67.445 26.9862 72.242C24.1982 74.5544 21.853 77.08 21.32 79.1054C20.623 81.7704 24.3704 102.065 25.0018 103.919C25.0305 104.037 25.1002 104.142 25.1986 104.214C25.6741 104.444 26.1835 104.596 26.7074 104.665C26.7566 105.091 26.8058 105.6 26.8222 106.026H17.8022C17.343 105.944 15.7194 105.624 15.3422 105.854C14.965 106.083 15.2766 107.166 15.4898 107.715C17.63 113.078 26.1498 125.755 29.807 130.872C21.2377 130.839 12.6787 131.47 4.20661 132.758C4.17639 132.765 4.14955 132.783 4.13037 132.807C4.11119 132.832 4.10077 132.862 4.10077 132.893C4.10077 132.924 4.11119 132.955 4.13037 132.979C4.14955 133.004 4.17639 133.021 4.20661 133.029C5.62521 132.865 15.2602 132.094 16.5886 132.004C20.7788 131.717 21.5906 131.7 30.2252 131.503C32.4315 134.64 34.8277 137.639 37.4002 140.482C26.5546 141.827 15.9389 144.624 5.83841 148.797C5.80994 148.815 5.78863 148.842 5.77836 148.873C5.76809 148.905 5.76954 148.939 5.78243 148.97C5.79533 149.001 5.81883 149.026 5.84865 149.041C5.87848 149.056 5.91267 149.06 5.94501 149.051C21.8694 142.565 39.032 139.867 55.7518 140.031C76.7028 140.245 85.772 144.582 106.592 143.73C120.884 143.156 128.691 139.917 135.292 139.064C142.926 138.072 154.152 139.966 159.277 142.237C159.293 142.248 159.311 142.255 159.33 142.258C159.35 142.261 159.369 142.259 159.388 142.254C159.406 142.248 159.423 142.238 159.438 142.225C159.452 142.212 159.463 142.196 159.471 142.178C159.478 142.16 159.482 142.141 159.481 142.122C159.48 142.102 159.474 142.083 159.465 142.066C159.456 142.049 159.443 142.034 159.428 142.023C159.412 142.011 159.394 142.003 159.375 141.999ZM129.191 112.971C128.988 111.627 128.715 110.294 128.371 108.978L130.011 108.379C133.627 109.618 134.021 108.027 135.981 107.559C137.94 107.092 139.039 108.543 140.343 108.781C140.4 109.101 140.458 109.421 140.507 109.741C137.096 110.7 133.234 111.815 129.191 112.971ZM127.19 119.056C124.73 126.026 106.075 130.331 104.066 131.061C102.541 131.61 100.999 132.701 99.7284 133.086C99.3348 133.217 95.9154 133.717 96.6944 133.201C97.0052 133.03 97.3395 132.905 97.6866 132.832C97.7682 132.808 97.8379 132.755 97.8816 132.682C97.9252 132.609 97.9397 132.522 97.922 132.439C97.9044 132.356 97.8559 132.283 97.7864 132.234C97.7168 132.185 97.6314 132.164 97.5472 132.176C97.0895 132.274 96.6198 132.304 96.1532 132.266C95.981 132.266 95.9072 132.036 95.9318 131.872C95.9564 131.708 95.9318 131.766 96.2844 131.692C96.7153 131.614 97.1508 131.565 97.5882 131.544C97.6324 131.541 97.6754 131.529 97.715 131.509C97.7546 131.49 97.7898 131.462 97.8187 131.429C97.8477 131.395 97.8697 131.356 97.8836 131.314C97.8975 131.272 97.903 131.228 97.8998 131.184C97.8966 131.139 97.8847 131.096 97.8648 131.057C97.8449 131.017 97.8174 130.982 97.7839 130.953C97.7504 130.924 97.7116 130.902 97.6695 130.888C97.6275 130.874 97.5832 130.869 97.539 130.872C97.1058 130.916 96.6705 130.935 96.2352 130.929C96.0056 130.929 95.6858 130.929 95.7678 130.675C95.8498 130.421 96.3746 130.314 96.5878 130.265C97.3422 130.109 98.2278 130.208 98.3344 129.511C98.3549 129.314 98.3148 129.116 98.2196 128.943C98.1243 128.77 97.9784 128.631 97.8014 128.543C97.3914 128.371 97.1454 128.543 96.7682 128.543C96.6662 128.548 96.5646 128.528 96.4718 128.485C96.3791 128.442 96.298 128.378 96.2352 128.297C96.6754 127.994 97.1933 127.823 97.7276 127.805C98.7317 127.714 99.7383 127.95 100.598 128.478C100.655 128.505 100.72 128.515 100.783 128.504C100.846 128.494 100.904 128.465 100.95 128.42C103.583 126.08 106.363 123.911 109.273 121.926C114.611 118.351 115.718 118.834 115.571 118.269C115.423 117.703 115.243 116.924 115.128 116.366C118.679 115.948 125.427 114.792 127.994 114.21C127.988 115.858 127.717 117.494 127.19 119.056ZM94.6198 122.664C94.6198 122.59 94.5706 122.508 94.5214 122.393C94.6116 121.95 94.71 121.508 94.8084 121.065C95.2922 120.966 95.8334 120.729 95.8416 120.245C95.8416 119.876 95.5054 119.663 95.1446 119.564C95.3004 118.875 95.4234 118.318 95.53 117.875C97.662 118.49 100.45 119.343 104.042 120.138C100.466 121.114 97.2438 121.991 94.6198 122.664ZM92.1598 122.582C92.3034 123.018 92.3943 123.469 92.4304 123.927C92.2318 123.805 92.0613 123.643 91.9302 123.451C91.307 122.631 91.348 122.205 90.9462 122.311C90.8712 122.332 90.8053 122.377 90.7591 122.439C90.713 122.502 90.6893 122.578 90.692 122.656V123.476C90.692 123.853 90.692 124.009 90.5034 124.107C90.3148 124.205 90.0934 123.902 90.0114 123.615C89.8556 123.09 90.0114 123.008 89.8228 122.385C89.4891 121.18 89.283 119.943 89.2078 118.695C88.9536 116.235 88.7814 112.742 89.5686 110.397C90.8478 111.627 94.4886 114.874 94.751 115.112C93.8794 116.38 93.233 117.789 92.8404 119.277C92.701 119.974 93.234 119.687 94.6198 119.966C94.8049 119.997 94.9844 120.055 95.1528 120.138C95.2594 120.196 95.2922 120.22 95.1528 120.31C94.536 120.543 93.8711 120.619 93.2176 120.532C93.1582 120.531 93.0998 120.547 93.0488 120.577C92.9979 120.608 92.9565 120.652 92.9293 120.705C92.902 120.758 92.89 120.817 92.8946 120.876C92.8992 120.935 92.9202 120.992 92.9552 121.04C93.275 121.467 94.1934 122.893 94.0212 123.361C93.5751 123.071 93.1837 122.704 92.865 122.278C92.7338 122.123 92.6354 121.975 92.4468 121.975C92.2582 121.975 92.0614 122.18 92.1516 122.582H92.1598ZM38.54 64.5914C38.54 63.7714 38.6794 63.6894 38.6384 62.6972C39.5158 62.812 41.5002 63.0662 43.9356 63.3614C43.8542 64.1073 43.879 64.8611 44.0094 65.6C43.2714 65.4934 39.2862 64.8866 38.54 64.5914ZM56.0962 43.337C55.7928 43.9766 51.9142 52.6358 51.1762 54.2184C51.4714 49.1426 52.6604 44.6572 53.9396 40.0734C54.7596 37.2936 55.3992 35.0632 55.5796 34.4564C56.7628 34.5959 57.8914 35.0332 58.8596 35.7274C58.2118 36.6868 54.9564 41.4674 54.4234 42.5416C54.1774 43.0254 55.186 43.05 56.0962 43.337ZM68.6422 70.8152C69.249 71.5286 69.0522 71.463 69.9706 71.2334C70.1045 71.7782 70.329 72.2965 70.6348 72.7668C70.8316 73.062 71.299 73.0538 71.6516 72.9964C71.7582 73.2342 72.119 74.0132 72.1928 74.2592C72.4388 75.0792 72.0698 76.0796 72.5782 76.8832C72.6257 77.0373 72.7276 77.1688 72.8649 77.2533C73.0022 77.3378 73.1655 77.3694 73.3244 77.3424C73.3132 77.5035 73.3132 77.6651 73.3244 77.8262L71.6844 80.811C71.0612 81.2538 68.3224 83.148 68.347 83.9106C67.9452 84.6568 68.675 86.0508 68.716 86.2148C59.2204 103.574 59.9748 102.705 59.901 102.377C59.081 98.7772 58.5234 95.8662 58.6546 94.6362C58.958 91.881 60.2946 83.0496 60.6062 75.7188C63.3995 74.2801 66.0852 72.6413 68.6422 70.8152ZM88.3222 74.743C89.4751 75.8114 90.5366 76.9744 91.4956 78.2198C90.9462 78.7282 89.4702 79.7286 88.7896 80.196C88.5707 79.9821 88.3188 79.8049 88.0434 79.6712C87.699 79.4826 86.674 80.2042 86.5018 80.5896C86.479 80.6644 86.479 80.7444 86.5018 80.8192C86.592 81.067 86.7103 81.3036 86.8544 81.5244L80.6306 85.6244C80.3764 85.3456 79.6876 84.6814 79.335 84.8044C78.8544 85.0546 78.4324 85.404 78.0968 85.8294C78.0795 85.8532 78.0701 85.8819 78.0701 85.9114C78.0701 85.9409 78.0795 85.9696 78.0968 85.9934C78.2404 86.3382 78.4133 86.6702 78.6134 86.9856C77.7442 87.5596 75.2842 89.1668 74.3822 89.6588C73.4884 88.7732 69.7164 85.0094 69.1014 83.9188C70.0116 82.123 82.6396 74.4888 85.9442 72.6356C85.9524 72.6766 87.2234 73.6852 88.3222 74.743ZM92.1024 49.2C94.8576 50.9876 104.165 72.5864 105.493 75.6532L105.419 75.809C105.208 75.7047 104.974 75.656 104.738 75.6675C104.503 75.679 104.275 75.7503 104.074 75.8746C103.797 76.0109 103.559 76.2172 103.386 76.4732C103.23 76.7356 103 77.0144 103.099 77.2932C102.541 77.3834 101.336 78.6708 101.713 79.6384C101.748 79.7246 101.808 79.7986 101.885 79.8516C101.807 79.9113 101.743 79.9868 101.696 80.073C101.057 81.1308 101.475 82.533 102.098 82.697C102.217 82.7259 102.34 82.7259 102.459 82.697C102.418 84.6192 102.676 86.5361 103.222 88.3796C104.042 90.6838 105.206 91.4136 106.502 91.6596C106.379 92.0614 106.149 92.6928 106.116 92.7748C99.5562 94.1606 94.0212 99.7612 90.5362 105.55L90.9954 88.7568C91.676 88.1746 95.6202 84.7962 95.7842 83.9106C95.9482 83.025 92.2746 79.253 91.7416 78.6954C91.8351 78.6125 91.9153 78.5157 91.9794 78.4084C92.1024 78.105 91.6022 77.5884 91.3152 77.244C91.7088 63.0498 92.045 51.25 92.1024 49.2ZM128.576 113.406C127.026 113.857 115.136 115.932 113.152 115.866C112.908 114.355 112.776 112.829 112.758 111.299C113.841 110.889 117.432 109.741 118.137 109.536C121.188 108.645 124.324 108.079 127.494 107.846C127.982 109.659 128.343 111.503 128.576 113.365V113.406ZM95.5874 115.046C94.382 113.824 90.5362 110.569 89.4128 109.306C89.873 108.116 90.4469 106.974 91.1266 105.895C92.8454 107.752 94.663 109.514 96.5714 111.176C96.3146 112.461 95.9861 113.731 95.5874 114.98V115.046ZM93.3324 119.392C93.6509 117.973 94.2053 116.618 94.9724 115.382C95.1528 115.554 95.3004 115.702 95.3824 115.8C95.0872 116.916 94.7838 118.187 94.4886 119.49C93.9474 119.351 93.6604 119.359 93.3324 119.326V119.392ZM103.066 82.6478C103.886 82.943 104.706 82.0574 105.157 81.3194C105.276 81.1281 105.375 80.9247 105.452 80.7126C105.755 80.8422 106.088 80.8885 106.415 80.8467C106.742 80.8049 107.052 80.6765 107.313 80.4748C107.604 80.8182 107.976 81.0825 108.397 81.243C108.817 81.4036 109.271 81.4553 109.716 81.3932C109.775 81.6622 109.9 81.9121 110.081 82.1199C110.261 82.3277 110.491 82.4866 110.749 82.5822C110.933 82.6598 111.135 82.6826 111.331 82.6478C111.34 82.8272 111.387 83.0026 111.469 83.1624C111.551 83.3222 111.666 83.4627 111.807 83.5744C112.005 83.7318 112.239 83.8387 112.488 83.886C112.488 83.9434 112.488 84.0336 112.553 84.0746C112.58 84.1377 112.623 84.1924 112.679 84.2326C112.734 84.2729 112.8 84.2973 112.868 84.3032C112.936 84.3091 113.005 84.2963 113.066 84.2661C113.128 84.236 113.18 84.1896 113.217 84.132C113.324 83.9532 113.485 83.8126 113.677 83.7302C113.778 83.7139 113.881 83.7209 113.979 83.7507C114.078 83.7806 114.167 83.8325 114.242 83.9024C115.235 84.6322 113.504 85.854 112.816 86.6084C112.471 86.9856 112.816 88.9618 112.898 89.4948C113.119 90.897 113.447 92.7748 113.504 93.1028C112.824 96.0466 104.124 103.246 106.772 93.029C106.772 92.9142 107.059 92.209 107.174 91.84C107.289 91.471 107.313 91.1594 106.862 91.0774C106.223 91.0071 105.619 90.7505 105.124 90.3394C103.648 88.9044 103.287 86.346 103.115 84.3042C103.05 83.7326 103.034 83.1566 103.066 82.5822V82.6478ZM105.682 97.2602C106.502 101.573 112.873 96.8666 114.005 93.5948C116.283 94.0913 118.4 95.1514 120.163 96.678C117.342 96.432 114.677 99.1954 113.504 101.598C109.864 101.598 103.443 101.254 100.311 99.8514C99.4906 99.507 98.0228 98.8428 97.5718 98.1212C99.945 95.9051 102.83 94.3107 105.969 93.48C105.627 94.6868 105.529 95.9496 105.682 97.1946V97.2602ZM113.98 101.631C115.382 98.7936 118.424 95.9564 121.36 97.2028C123.148 97.9572 124.525 100.015 125.599 102.393C121.335 102.082 117.06 102.838 113.16 104.591C113.289 103.57 113.565 102.573 113.98 101.631ZM97.3176 98.2196C97.8096 99.0396 99.1872 99.7366 100.073 100.188C103.353 101.828 109.503 102.164 113.193 102.164C112.758 103.383 112.469 104.649 112.332 105.936C110.151 105.813 100.368 105.116 98.6132 104.124C98.9658 102.41 99.2774 100.926 99.3512 100.671C99.3621 100.638 99.3591 100.601 99.343 100.57C99.335 100.554 99.324 100.54 99.3106 100.529C99.2973 100.517 99.2818 100.509 99.2651 100.503C99.2314 100.492 99.1947 100.495 99.1632 100.512C99.1317 100.528 99.1079 100.556 99.097 100.589C98.6855 101.678 98.3377 102.79 98.0556 103.919C96.7424 103.171 95.5088 102.292 94.3738 101.295C95.2929 100.201 96.2876 99.1738 97.3504 98.2196H97.3176ZM94.177 101.5C95.3096 102.608 96.564 103.584 97.9162 104.411C97.4242 106.452 96.7026 110.151 96.6452 110.487C95.366 109.404 92.3566 106.838 91.2496 105.567C92.1412 104.147 93.1304 102.791 94.2098 101.508L94.177 101.5ZM98.4902 104.64C100.811 105.837 109.65 106.452 112.242 106.6C112.055 108.667 112.019 110.744 112.135 112.816C107.097 112.664 102.087 111.993 97.1864 110.815C97.498 109.65 97.4816 109.691 98.523 104.648L98.4902 104.64ZM112.717 110.921C112.662 108.92 112.772 106.918 113.045 104.935C117.158 103.626 121.426 102.867 125.739 102.68C126.398 104.242 126.946 105.847 127.379 107.486C123.213 107.354 118.539 108.166 112.75 110.93L112.717 110.921ZM113.816 91.5448C113.554 90.1508 113.242 88.5518 113.144 87.5514C113.436 87.6705 113.761 87.6823 114.061 87.5847C114.361 87.4872 114.617 87.2866 114.784 87.0184C114.876 87.0363 114.97 87.0363 115.062 87.0184L113.816 91.5448ZM69.167 85.8622C69.0205 85.5186 68.9079 85.1616 68.8308 84.7962C69.9132 86.1902 72.734 89.0356 73.9804 90.282C74.2182 90.5198 74.5872 90.282 74.9152 90.0688C78.5478 94.1688 78.1542 93.726 79.8352 95.366C79.9582 95.4972 80.1632 95.3168 80.0402 95.1856C78.6521 93.2708 77.1429 91.4466 75.522 89.7244C76.342 89.216 77.5474 88.4452 78.9496 87.535C79.2284 87.8712 79.6302 88.2894 80.0402 88.1582C80.5356 87.9189 80.983 87.591 81.3604 87.1906C81.5654 86.8872 81.2866 86.4772 81.0488 86.1574C81.221 86.0426 86.7232 82.3362 87.166 82.0574C88.314 83.6974 88.5026 83.2464 89.872 82.2214C90.364 81.8442 89.6506 81.057 89.2078 80.5814C89.831 80.1386 90.6428 79.5482 91.2332 79.0808C92.6687 80.5347 93.9696 82.1155 95.12 83.804C94.4804 85.2636 79.745 98.0146 77.408 97.8424C76.0878 97.7358 69.5688 86.8052 69.1998 85.8704L69.167 85.8622ZM80.729 86.92C80.4583 87.1664 80.1645 87.3861 79.8516 87.576C79.2723 87.1238 78.7637 86.5876 78.3428 85.9852C79.3432 85.28 79.4826 85.3292 79.4006 85.3538C79.9049 85.8204 80.351 86.3463 80.729 86.92ZM89.38 81.7622C89.1914 81.9016 88.6092 82.3362 88.4288 82.4264C88.232 82.2624 88.1254 82.2624 87.3956 81.2128C87.2631 81.0409 87.1425 80.8601 87.0348 80.6716C87.1875 80.4964 87.3549 80.3346 87.535 80.1878C87.5842 80.1468 87.8958 79.8926 87.9614 79.9172C88.5236 80.458 89.0018 81.0799 89.38 81.7622ZM75.071 78.5806L74.3166 79.0644C74.2182 78.6626 74.1198 78.2444 74.046 77.859C74.2838 77.4326 74.5216 77.039 74.743 76.6044C74.9726 76.8586 74.8988 77.1866 75.0382 77.5884C75.1776 77.9902 75.1694 77.531 75.071 78.5806ZM73.554 78.761C73.6114 79.007 73.677 79.2366 73.7344 79.4498L72.8488 80.032L73.554 78.761ZM79.6876 75.768L78.6298 75.1284C78.5649 74.7749 78.4251 74.4394 78.2198 74.1444C79.0532 74.3132 79.8146 74.734 80.401 75.3498L79.6876 75.768ZM78.4904 75.7024L79.0644 76.137C78.2444 76.6372 77.3588 77.162 76.4978 77.695C76.6029 77.5064 76.6619 77.2957 76.67 77.08C76.7939 77.1134 76.9239 77.1173 77.0495 77.0914C77.1751 77.0654 77.293 77.0104 77.3935 76.9306C77.494 76.8509 77.5743 76.7486 77.6281 76.6322C77.6819 76.5157 77.7076 76.3882 77.7032 76.26C77.8701 76.2388 78.0292 76.1768 78.1665 76.0796C78.3038 75.9824 78.415 75.8528 78.4904 75.7024ZM49.2 66.338C49.4706 65.9772 49.3886 64.4684 49.3558 64.0256L53.136 64.4766C53.3738 65.2966 53.6116 66.1166 53.8494 66.871C52.2905 66.7845 50.738 66.6065 49.2 66.338ZM45.141 44.567C45.8916 42.8761 46.5271 41.1365 47.0434 39.36C47.2894 39.9094 47.6502 39.6224 48.1586 39.3108C48.1586 39.8356 48.0766 40.4096 48.0766 40.4916C48.0689 40.5681 48.0898 40.6448 48.1352 40.7069C48.1806 40.7689 48.2473 40.812 48.3226 40.8278H48.4456C45.1656 48.9622 42.6072 53.3738 44.7146 58.1544C46.2234 61.5656 46.0922 59.8846 46.002 61.1474V62.32C45.633 62.32 44.4194 62.2462 44.198 62.4922C44.0914 62.5824 44.6654 62.607 38.6056 61.9346C38.5197 61.3698 38.4704 60.8001 38.458 60.229C38.2626 57.8445 38.5413 55.445 39.278 53.1688C42.353 48.626 44.6818 45.6084 45.141 44.567ZM48.0684 34.8664C48.563 35.7858 49.1106 36.6756 49.7084 37.5314C49.2738 37.8184 48.0684 38.6384 47.5846 38.909C47.1746 37.5642 47.2894 39.5732 48.0684 34.8664ZM50.758 51.66C50.4694 53.3038 50.428 54.9814 50.635 56.6374C50.2303 55.636 49.9121 54.6017 49.6838 53.546C48.8638 47.2402 49.2656 46.5924 50.5612 41.3608H50.6514C50.7295 41.3781 50.8113 41.3669 50.8819 41.3294C50.9525 41.2918 51.0075 41.2302 51.0368 41.1558C51.168 40.8196 51.3484 40.3358 51.4796 39.9422C51.9388 40.6228 51.701 40.7212 53.6526 39.1222C52.2961 43.2013 51.327 47.3991 50.758 51.66ZM48.7408 40.2784C48.7408 39.6142 48.7408 39.278 48.7818 38.9254L50.102 38.007C50.2004 38.1464 50.8564 39.0894 51.0532 39.3846C50.9876 39.5322 50.6842 40.2702 50.5612 40.5818C49.7986 40.4588 48.6588 40.2784 48.7408 40.2784ZM48.626 65.928C47.2821 66.1217 45.913 66.0436 44.5998 65.6984C44.3384 64.8187 44.2302 63.9006 44.28 62.9842C44.321 62.6972 44.28 62.7218 44.5178 62.7054C45.7339 62.7656 46.9417 62.9386 48.1258 63.222C48.2734 63.222 48.4456 63.263 48.544 63.2876C48.6899 64.16 48.7175 65.0482 48.626 65.928ZM49.0688 62.853C48.2901 62.5938 47.4782 62.4474 46.658 62.4184C46.6411 61.9244 46.5973 61.4317 46.5268 60.9424C47.3468 61.3032 48.4456 61.3852 49.2492 61.6558C49.692 61.8034 49.9462 61.2786 50.1184 60.8358C50.4575 59.835 50.7314 58.8134 50.9384 57.7772C51.5616 59.5648 52.193 61.5738 52.808 63.591C48.052 63.0252 49.5526 63.3286 49.0688 62.853ZM53.9888 38.0562L51.9552 39.8274C51.537 39.2944 50.9548 38.5564 50.512 38.0398C52.068 37.1491 53.5587 36.1489 54.9728 35.0468C54.7596 35.7356 54.407 36.7852 54.0052 38.0562H53.9888ZM47.806 34.3334C47.323 37.1726 46.497 39.9426 45.346 42.5826C44.602 44.3534 43.6109 46.0099 42.4022 47.5026C41.533 48.5358 39.6716 51.3648 38.5236 53.0868C38.95 51.578 39.6224 49.4214 39.9668 48.3882C40.5408 46.6498 41.1804 42.107 41.6068 40.9016C42.3068 40.9237 43.0037 41.006 43.6896 41.1476C43.911 41.1476 44.0176 41.041 44.075 40.8278C44.3822 38.6527 44.5765 36.4631 44.6572 34.2678L47.806 34.3334ZM63.7796 118.129C62.6972 113.521 61.2212 107.928 60.1388 103.271C63.0006 97.9982 66.174 92.1844 69.0932 86.8708C69.9132 88.2566 75.8008 98.0064 77.3998 98.1212C79.5318 98.2852 88.8224 90.6018 90.5198 89.1668C90.3312 95.0626 90.1426 100.999 89.9622 106.543C89.4667 107.387 89.06 108.28 88.7486 109.208C88.727 109.278 88.7225 109.353 88.7353 109.426C88.7481 109.498 88.778 109.567 88.8224 109.626C88.9536 109.782 89.1422 109.978 89.3718 110.2C88.4042 112.594 88.437 116.194 88.642 118.769C88.7322 119.81 88.9372 121.467 88.9946 121.647C89.1163 122.054 89.2149 122.467 89.2898 122.885C89.2835 123.235 89.3334 123.584 89.4374 123.918C87.5432 124.271 88.2812 124.829 63.7796 118.129ZM105.354 119.769C102.115 119.154 98.5886 118.359 95.5956 117.604C96.0302 115.759 95.2594 118.67 97.0798 111.389C102.026 112.666 107.102 113.379 112.209 113.513C112.266 114.234 112.324 114.849 112.389 115.3C112.545 116.481 112.611 116.538 113.562 116.497L114.644 116.407C114.693 116.661 114.743 116.891 114.784 117.104C111.52 118.023 108.33 118.9 105.354 119.72V119.769ZM138.58 84.05C140.678 87.3026 141.95 91.0181 142.286 94.874C142.317 96.3569 142.123 97.8358 141.712 99.261C140.425 103.591 132.512 106.813 128.24 108.33C127.788 106.597 127.212 104.898 126.518 103.246C128.49 101.463 130.697 99.9595 133.078 98.7772C133.106 98.7635 133.13 98.7409 133.145 98.7129C133.159 98.6848 133.165 98.6527 133.16 98.6214C133.16 98.6214 131.79 92.4386 132.34 87.5104C132.668 84.7142 133.603 82.3116 135.89 81.8278C136.719 81.6474 138.088 83.2956 138.58 84.05ZM132.02 74.2674C131.768 73.9119 131.54 73.5393 131.339 73.1522L131.495 72.857C131.862 72.7537 132.202 72.575 132.496 72.3322C132.688 72.6307 132.839 72.9533 132.947 73.2916C132.282 73.9312 132.02 74.2592 132.02 74.2674ZM121.663 72.7914C121.542 72.569 121.435 72.3389 121.344 72.1026C121.514 71.7995 121.706 71.509 121.918 71.2334C121.906 71.7012 121.947 72.1688 122.041 72.6274C121.893 72.6766 121.688 72.775 121.631 72.7914H121.663ZM120.023 78.3018C123.148 77.5228 123.303 77.7032 123.41 77.4326L124.23 75.1612C124.245 75.1144 124.245 75.0639 124.231 75.0169C124.216 74.9699 124.187 74.9287 124.148 74.8988C123.49 74.4547 122.969 73.8355 122.645 73.1109C122.32 72.3864 122.204 71.5855 122.311 70.7988C122.311 69.9788 122.311 70.151 122.369 70.0444C122.47 69.7984 122.533 69.5385 122.557 69.2736C122.598 68.9829 122.699 68.7038 122.852 68.4536C122.927 68.3678 122.983 68.2673 123.017 68.1586C123.051 68.0499 123.062 67.9353 123.049 67.8222C123.049 67.6664 123.049 67.7074 123.148 67.7156C123.319 67.7412 123.494 67.7215 123.656 67.6582C123.869 67.5516 124.304 67.3056 124.533 67.3794C125.009 67.527 125.271 67.9124 126.009 67.732C126.296 67.6664 127.051 67.1498 127.207 67.1908C127.491 67.3745 127.765 67.5743 128.027 67.7894C128.904 68.2814 129.913 67.4778 130.38 67.9206C130.487 68.003 130.568 68.1132 130.616 68.2391C130.664 68.365 130.676 68.5017 130.651 68.634C130.569 68.9456 130.528 69.3802 130.429 69.6918C130.373 69.9521 130.404 70.2235 130.516 70.4647C130.629 70.706 130.817 70.9039 131.052 71.0284C131.145 71.0709 131.249 71.0803 131.348 71.0549C131.446 71.0295 131.533 70.9709 131.594 70.889C131.639 70.8203 131.701 70.764 131.774 70.725C131.837 70.6975 131.906 70.6875 131.974 70.6962C132.041 70.7048 132.106 70.7318 132.159 70.7742C132.263 70.9524 132.31 71.1583 132.292 71.3638C132.274 71.5693 132.194 71.7643 132.061 71.9222L131.913 72.0206C131.912 71.9938 131.902 71.968 131.887 71.9463C131.871 71.9247 131.849 71.9081 131.824 71.8986C131.799 71.889 131.771 71.887 131.745 71.8926C131.719 71.8983 131.695 71.9114 131.676 71.9304C131.536 72.0616 131.413 72.1764 131.307 72.2912L130.946 72.3814C130.593 72.4388 130.839 72.816 129.986 74.0214C129.729 74.4666 129.343 74.8238 128.879 75.0464C128.808 75.0675 128.747 75.1146 128.71 75.1785C128.672 75.2423 128.659 75.3181 128.674 75.3908L129.207 77.8508C129.298 78.2772 129.724 77.8508 133.201 79.6384C131.618 80.7946 130.528 83.2054 130.011 85.0586C127.98 85.0096 125.99 85.6354 124.353 86.838C123.754 86.018 120.384 84.4272 119.285 83.8778C119.687 83.0004 119.556 79.5236 119.171 78.474L120.023 78.3018ZM91.84 49.1098C91.7088 52.6112 91.3398 63.6976 90.9216 76.7684C90.1754 75.9484 86.5756 72.5044 85.936 72.3486C85.6818 72.2912 81.2128 74.8824 81.016 75.0136C80.4748 74.292 78.9332 73.4966 78.023 73.8492C77.6625 73.4877 77.2404 73.1934 76.7766 72.98C78.0476 70.7004 89.5686 50.3398 91.84 49.1098ZM76.2026 73.1522C76.649 73.3236 77.0486 73.5978 77.3692 73.9526C77.6897 74.3073 77.9222 74.7326 78.0476 75.194C78.0476 75.276 77.8344 75.645 77.7114 75.645C77.6571 75.3668 77.5831 75.0928 77.49 74.825C77.285 74.3084 76.7766 74.5052 76.8012 74.825C76.849 75.1047 76.9231 75.3793 77.0226 75.645C77.0389 75.7949 77.0389 75.9461 77.0226 76.096C77.0226 76.4568 76.8422 76.465 76.7438 76.3502C76.6454 76.2354 76.6044 76.0714 76.547 75.7188C76.547 75.5138 76.465 75.358 76.4486 75.2842C76.4432 75.195 76.4025 75.1117 76.3356 75.0525C76.2687 74.9933 76.1811 74.9631 76.0919 74.9685C76.0027 74.9739 75.9194 75.0146 75.8602 75.0815C75.801 75.1484 75.7708 75.236 75.7762 75.3252C75.7762 76.1042 76.055 76.1452 75.9894 76.9652C75.9954 77.0444 75.9954 77.1238 75.9894 77.203C75.9894 77.3014 75.7352 77.5474 75.645 77.203C75.5958 77.039 75.5712 76.834 75.5384 76.67C75.3498 75.768 73.7918 74.9152 73.39 76.67C73.39 76.8422 72.939 76.67 72.8078 75.9156C72.5782 74.5298 73.0292 74.8414 71.9878 72.8898C73.0439 72.6033 74.0407 72.1312 74.9316 71.4958C75.2924 72.0452 75.5958 72.8242 76.2026 73.1522ZM74.5626 71.0858C73.923 71.422 71.8156 72.5044 71.1022 72.3896C70.7816 72.0102 70.5064 71.5946 70.2822 71.1514L74.3822 70.1674C74.4611 70.47 74.524 70.7766 74.5708 71.0858H74.5626ZM74.4232 69.4458L69.4048 70.6594C66.8382 67.6418 59.942 55.801 58.3184 52.2504C55.3828 45.92 60.3356 38.54 65.436 40.631C65.6574 40.8688 65.887 41.1148 66.1084 41.3772C70.1264 45.9938 73.431 63.4188 74.4314 69.4622L74.4232 69.4458ZM64.9604 40.18C59.7124 38.4826 54.6694 45.92 57.7198 52.5866C60.106 57.7936 66.461 67.6008 68.3798 70.192C66.6004 71.4548 59.3598 76.3748 57.2196 76.137C56.8178 75.2104 55.3746 69.9542 53.7756 64.7062C51.168 56.1618 51.1106 57.2606 51.1188 55.9158C51.25 55.7026 56.498 43.7634 56.6784 43.3862C56.7932 43.1648 56.6128 42.9762 56.375 42.8942C56.1372 42.8122 55.3746 42.6564 54.981 42.558C55.6616 41.3116 58.3266 37.0558 59.081 35.8422C61.2488 36.9827 63.2311 38.4452 64.9604 40.18ZM47.6256 31.5454C47.0106 31.1764 46.8876 31.078 46.6006 29.7004C46.4977 29.2476 46.4346 28.7866 46.412 28.3228C46.412 22.96 46.6252 23.534 46.5432 23.534C47.12 22.9773 47.5096 22.2553 47.6584 21.4676C48.3463 21.3862 49.0247 21.2379 49.6838 21.0248C50.061 20.8772 50.389 21.3938 50.6514 21.73C50.7483 21.9064 50.889 22.0548 51.0599 22.1611C51.2308 22.2674 51.4262 22.3279 51.6272 22.3368C52.1192 22.3368 52.3078 22.1236 53.095 22.4598C54.6612 23.124 53.2344 24.4196 54.0626 25.5594C54.1668 25.6913 54.3054 25.7917 54.4632 25.8496C54.621 25.9075 54.7917 25.9206 54.9564 25.8874L55.2106 25.789C55.842 25.6086 56.2192 25.6906 56.2028 26.3466C56.2239 26.8015 56.0648 27.2464 55.76 27.5848C54.817 28.4048 54.5792 28.1424 54.5136 28.4786C53.997 30.9796 54.0134 30.8074 54.0544 30.9386C54.4372 32.0104 54.7495 33.1061 54.9892 34.2186C53.545 35.3534 52.0274 36.3916 50.4464 37.3264C49.7522 36.3663 49.1274 35.3579 48.5768 34.3088C48.6916 34.071 49.077 32.9722 49.2246 32.5458C49.2387 32.5038 49.2444 32.4594 49.2413 32.4152C49.2383 32.3711 49.2265 32.3279 49.2067 32.2883C49.1868 32.2487 49.1594 32.2133 49.1259 32.1844C49.0924 32.1554 49.0535 32.1333 49.0114 32.1194C48.5324 31.9723 48.0683 31.7801 47.6256 31.5454ZM7.38001 25.8956C6.97001 25.666 6.69121 25.2724 8.14261 25.5922C8.8566 25.7425 9.55418 25.9622 10.2254 26.2482C10.0106 26.4321 9.81295 26.6352 9.63501 26.855C9.06101 26.609 7.85561 26.1662 7.38001 25.8956ZM9.84001 28.7C9.58004 28.6486 9.32876 28.5602 9.09381 28.4376C8.75761 28.1342 8.67561 27.8718 9.09381 27.7816H9.27421C9.27999 27.9708 9.33527 28.1552 9.43455 28.3163C9.53383 28.4775 9.67363 28.6098 9.84001 28.7ZM8.77401 29.561C8.73231 29.4528 8.73231 29.333 8.77401 29.2248C9.02001 28.7246 9.40541 28.9952 9.82361 29.1674L10.9798 29.6758C11.2504 29.807 11.2094 30.1022 10.7666 30.1514C10.1762 30.217 8.87241 29.8644 8.77401 29.561ZM10.9224 28.5114L11.1602 28.7328C11.2586 28.8312 11.1028 28.9296 10.9634 28.9542C10.1516 28.6426 10.414 28.9706 10.9224 28.5114ZM11.8736 31.4388C11.4882 31.4388 10.0614 31.2338 9.73341 30.6188C11.4308 31.283 12.2508 30.1842 11.5866 29.3724C11.6711 29.3008 11.7383 29.2111 11.7834 29.11C11.8107 29.107 11.8364 29.0961 11.8575 29.0786C11.8786 29.0611 11.894 29.0377 11.9019 29.0115C11.9098 28.9852 11.9097 28.9572 11.9018 28.931C11.8938 28.9048 11.8783 28.8815 11.8572 28.864C11.7536 28.7961 11.6647 28.7082 11.5957 28.6054C11.5267 28.5026 11.479 28.387 11.4554 28.2654C11.4256 28.039 11.4843 27.8099 11.6194 27.6258C11.6468 27.5695 11.653 27.5052 11.6371 27.4446C11.6212 27.384 11.5842 27.3311 11.5327 27.2955C11.4812 27.2598 11.4187 27.2438 11.3564 27.2502C11.2941 27.2567 11.2361 27.2852 11.193 27.3306C10.9765 27.6142 10.729 27.8728 10.455 28.1014C10.4124 28.1367 10.3587 28.1561 10.3033 28.1561C10.2479 28.1561 10.1943 28.1367 10.1516 28.1014C9.61041 27.6914 10.2582 27.0682 10.7748 26.6336C11.2914 26.199 12.6116 27.0272 13.1446 27.4536C13.3133 27.7073 13.4457 27.9833 13.5382 28.2736C13.5382 28.3884 13.5382 28.4212 13.612 28.454C13.6299 28.4627 13.6495 28.4672 13.6694 28.4672C13.6893 28.4672 13.7089 28.4627 13.7268 28.454C13.8499 28.5665 13.9624 28.69 14.063 28.823C13.4714 29.7359 12.9611 30.699 12.5378 31.7012C12.3219 31.6004 12.1001 31.5128 11.8736 31.4388ZM12.9232 32.3818C13.5504 31.0706 14.2683 29.8047 15.0716 28.5934C15.2808 28.5946 15.4874 28.6393 15.6784 28.7246C14.9161 30.0681 14.2476 31.4627 13.6776 32.8984C13.3824 32.7098 13.12 32.5212 12.9232 32.3818ZM33.6856 60.0814C33.6282 60.1716 31.5536 63.6402 31.4142 63.8862C31.0534 63.4762 30.5942 62.8284 30.3154 62.5086C31.5454 59.3844 39.0894 44.5998 39.5978 42.3202C39.6028 42.2887 39.5969 42.2565 39.581 42.2288C39.5651 42.2012 39.5402 42.1798 39.5105 42.1683C39.4807 42.1568 39.4479 42.1558 39.4176 42.1656C39.3872 42.1753 39.3611 42.1952 39.3436 42.2218C38.6443 43.305 38.0564 44.4561 37.5888 45.6576C34.9812 44.3374 31.8488 42.0332 29.2822 40.7376C25.42 38.7778 15.58 34.891 14.0466 33.825C14.7015 31.9026 15.5911 30.0683 16.6952 28.3638C20.5902 29.3478 28.9952 32.7426 30.2908 32.8164C34.7926 33.0542 39.852 33.4888 44.4112 33.9562C44.2062 34.0464 44.362 34.03 43.911 38.1956C43.8536 38.7286 43.706 40.0816 43.5748 40.59C42.8901 40.4248 42.1881 40.3422 41.4838 40.344C41.38 40.3568 41.2824 40.4003 41.2035 40.469C41.1246 40.5377 41.068 40.6283 41.041 40.7294C40.672 41.6888 39.9504 46.5186 39.401 48.216C39.155 48.9704 37.5724 53.8904 37.5314 54.6038C37.5068 54.7186 35.2026 57.6132 33.6856 60.0814ZM31.98 86.8216C36.367 85.0668 38.8598 83.7548 42.0004 82.2378C42.0004 82.1558 41.615 78.3264 41.6478 77.1374V76.5388C41.6553 76.5086 41.6727 76.4817 41.6972 76.4626C41.7217 76.4434 41.752 76.433 41.7831 76.433C41.8142 76.433 41.8445 76.4434 41.869 76.4626C41.8935 76.4817 41.9109 76.5086 41.9184 76.5388C42.64 79.4088 43.788 89.38 44.7556 93.6686C45.6053 97.9132 46.8404 102.071 48.4456 106.092L31.7832 106.042C31.7176 105.69 31.6438 105.345 31.57 105.042C31.8242 105.042 32.0866 105.042 32.1932 104.812C33.4232 102.5 32.5048 89.1012 31.98 86.8216ZM31.037 105.05C31.3101 106.474 31.5072 107.911 31.6274 109.355C29.438 108.781 27.3962 108.248 25.5512 107.781C26.0977 107.711 26.6172 107.502 27.06 107.174C27.4044 106.813 27.1338 105.28 27.06 104.714C28.3797 104.913 29.7109 105.025 31.0452 105.05H31.037ZM30.668 131.454L37.3264 131.315C37.3612 131.315 37.3946 131.301 37.4192 131.276C37.4438 131.252 37.4576 131.218 37.4576 131.184C37.4576 131.149 37.4438 131.115 37.4192 131.091C37.3946 131.066 37.3612 131.052 37.3264 131.052C36.2112 131.003 31.4798 130.856 30.217 130.839C26.4204 125.501 18.4664 113.488 16.0802 107.879C15.8198 107.367 15.6584 106.811 15.6046 106.239C17.4742 105.673 52.5948 115.71 61.7788 118.252C88.3632 125.591 87.6252 124.943 89.7326 124.509C89.8415 124.631 89.9807 124.722 90.1361 124.773C90.2915 124.823 90.4576 124.832 90.6175 124.798C90.7774 124.764 90.9254 124.688 91.0465 124.578C91.1676 124.468 91.2575 124.328 91.307 124.173C91.3332 124.068 91.3496 123.961 91.3562 123.853C91.7088 124.32 92.2254 124.812 92.7584 124.55C93.1356 124.369 93.1192 123.869 93.0454 123.459C93.398 123.795 93.8654 124.214 94.3328 124C94.4509 123.933 94.5485 123.835 94.615 123.717C94.6814 123.598 94.7143 123.464 94.71 123.328C96.6534 122.828 110.101 119.121 114.907 117.752L115.005 118.154C110.331 119.925 104.345 124.509 100.663 127.772C99.7529 127.238 98.6949 127.011 97.6456 127.125C96.4156 127.256 94.9314 127.879 95.776 128.765C96.6206 129.65 97.5882 128.765 97.662 129.363C97.662 129.478 96.7764 129.503 96.2352 129.65C95.694 129.798 95.1118 130.085 95.0708 130.659C95.0673 130.798 95.0957 130.936 95.154 131.063C95.2123 131.189 95.2989 131.301 95.407 131.389C95.3164 131.523 95.26 131.678 95.2425 131.839C95.2251 132.001 95.2472 132.164 95.307 132.315C95.3667 132.466 95.4622 132.6 95.5854 132.706C95.7085 132.812 95.8556 132.886 96.0138 132.922C95.6858 133.373 95.9154 133.988 96.7764 134.086C97.8339 134.069 98.8866 133.94 99.917 133.701C101.237 133.266 102.754 132.209 104.271 131.659C105.788 131.11 125.066 126.551 127.518 119.162C127.794 118.313 127.995 117.44 128.117 116.555C128.568 113.365 127.781 114.365 128.937 113.923C129.003 113.905 129.064 113.87 129.114 113.823C129.164 113.776 129.202 113.717 129.224 113.652C132.184 112.832 151.446 107.248 153.939 106.944C152.52 110.331 137.908 131.2 131.397 139.154C121.631 141.188 108.839 145.821 77.5884 141.147C64.4185 139.096 51.0307 138.848 37.7938 140.409C35.2283 137.582 32.8507 134.591 30.6762 131.454H30.668Z" fill="black"/>
<path id="Vector_3" fill-rule="evenodd" clip-rule="evenodd" d="M159.769 127.256C155.548 126.976 151.314 126.962 147.092 127.215C147.055 127.215 147.019 127.229 146.993 127.256C146.967 127.282 146.952 127.317 146.952 127.354C146.952 127.391 146.967 127.427 146.993 127.453C147.019 127.479 147.055 127.494 147.092 127.494C151.312 127.797 155.549 127.797 159.769 127.494C159.789 127.481 159.806 127.464 159.818 127.443C159.829 127.422 159.835 127.399 159.835 127.375C159.835 127.351 159.829 127.327 159.818 127.307C159.806 127.286 159.789 127.268 159.769 127.256ZM152.987 117.26C152.965 117.287 152.953 117.322 152.957 117.358C152.96 117.393 152.977 117.426 153.004 117.449C153.031 117.471 153.066 117.483 153.102 117.479C153.137 117.476 153.17 117.459 153.192 117.432C154.723 117.571 156.264 117.527 157.784 117.301L158.301 117.219C158.331 117.212 158.358 117.194 158.377 117.17C158.396 117.145 158.407 117.115 158.407 117.084C158.407 117.053 158.396 117.022 158.377 116.998C158.358 116.973 158.331 116.956 158.301 116.948C156.528 116.663 154.715 116.77 152.987 117.26ZM6.66663 122.008C18.4664 121.188 18.1876 121.426 18.1958 121.188C18.1982 121.17 18.1967 121.153 18.1916 121.136C18.1865 121.119 18.1778 121.103 18.1662 121.09C18.1545 121.077 18.1401 121.066 18.124 121.059C18.1079 121.052 18.0905 121.048 18.0728 121.048C14.2316 120.712 10.3617 120.955 6.59283 121.77C6.57205 121.77 6.55147 121.774 6.53279 121.783C6.5141 121.792 6.49784 121.806 6.48534 121.822C6.47285 121.839 6.46448 121.858 6.46092 121.879C6.45736 121.899 6.45872 121.92 6.46488 121.94C6.47104 121.96 6.48183 121.978 6.49635 121.993C6.51088 122.008 6.52872 122.019 6.54842 122.026C6.56813 122.032 6.58912 122.034 6.60967 122.031C6.63022 122.028 6.64974 122.02 6.66663 122.008ZM132.93 63.1892C132.982 63.4204 133.001 63.6578 132.988 63.8944C132.988 64.083 132.988 64.1814 133.398 64.411C133.752 64.54 134.057 64.7783 134.267 65.0916C134.448 65.4442 134.54 65.8352 134.537 66.2314C134.767 66.2314 135.013 66.584 135.398 66.6168C135.685 66.6151 135.965 66.5385 136.213 66.3946C136.46 66.2508 136.666 66.0447 136.809 65.7968C137.104 65.1162 136.21 64.5668 136.268 64.37H136.341C136.473 64.3093 136.595 64.2291 136.702 64.1322C137.112 63.714 137.621 62.9678 137.424 62.4184C137.178 61.7378 136.538 60.7784 135.784 60.6472C135.583 60.6183 135.378 60.6183 135.177 60.6472C135.029 60.6472 135.005 60.6472 134.906 60.5488C134.787 60.3493 134.635 60.1718 134.455 60.024C134.3 59.901 134.111 59.7944 133.963 59.655C133.816 59.5156 133.742 59.3188 133.603 59.163C132.84 58.343 130.921 58.8514 130.437 59.6714C130.191 60.0896 130.29 60.311 129.79 60.3848C130.518 60.5246 131.194 60.8592 131.747 61.3531C132.3 61.8469 132.709 62.4815 132.93 63.1892ZM125.608 72.16C125.667 72.2356 125.741 72.298 125.826 72.3432C125.911 72.3884 126.004 72.4154 126.1 72.4224C126.337 72.4224 126.92 72.4224 126.846 72.1682C126.842 72.1507 126.835 72.1341 126.824 72.1196C126.814 72.105 126.8 72.0927 126.785 72.0835C126.77 72.0743 126.753 72.0683 126.735 72.066C126.717 72.0636 126.699 72.0649 126.682 72.0698C126.488 72.0569 126.305 71.9756 126.165 71.8402C126.108 71.8402 126.165 71.7008 126.165 71.6106C126.165 71.5204 126.165 71.3318 126.214 71.176C126.273 70.7436 126.309 70.3084 126.321 69.8722C126.329 69.8399 126.325 69.8057 126.311 69.7758C126.296 69.746 126.271 69.7225 126.24 69.7096C126.209 69.6967 126.175 69.6953 126.143 69.7056C126.111 69.7158 126.084 69.7371 126.067 69.7656C125.82 70.107 125.651 70.4983 125.572 70.9119C125.493 71.3256 125.505 71.7516 125.608 72.16ZM125.321 73.8C125.47 73.9513 125.654 74.064 125.857 74.1283C126.06 74.1926 126.276 74.2065 126.485 74.169C126.692 74.1533 126.895 74.1005 127.084 74.0132C127.28 73.8994 127.439 73.7314 127.543 73.5294C127.566 73.5022 127.577 73.4671 127.574 73.4317C127.571 73.3963 127.554 73.3636 127.526 73.3408C127.499 73.318 127.464 73.3069 127.429 73.3099C127.393 73.313 127.361 73.33 127.338 73.3572C127.188 73.4011 127.034 73.4259 126.879 73.431C126.57 73.4881 126.258 73.521 125.944 73.5294C125.78 73.5468 125.615 73.5468 125.452 73.5294C125.416 73.512 125.375 73.5096 125.337 73.5226C125.299 73.5357 125.268 73.5632 125.251 73.5991C125.234 73.635 125.231 73.6763 125.244 73.714C125.257 73.7517 125.285 73.7826 125.321 73.8ZM106.641 87.0594C106.671 87.0409 106.693 87.0111 106.702 86.9765C106.71 86.9419 106.705 86.9054 106.686 86.8749C106.668 86.8445 106.638 86.8226 106.603 86.8141C106.569 86.8057 106.532 86.8113 106.502 86.8298C106.297 86.9036 105.895 86.9692 105.755 86.8298C105.889 85.8326 105.938 84.8259 105.903 83.8204C105.903 83.8032 105.9 83.7861 105.893 83.7702C105.886 83.7543 105.877 83.7398 105.865 83.7276C105.852 83.7155 105.838 83.7058 105.822 83.6992C105.806 83.6926 105.789 83.6892 105.772 83.6892C105.755 83.6892 105.738 83.6926 105.722 83.6992C105.706 83.7058 105.691 83.7155 105.679 83.7276C105.667 83.7398 105.657 83.7543 105.651 83.7702C105.644 83.7861 105.641 83.8032 105.641 83.8204C105.294 84.7662 105.113 85.765 105.108 86.7724C105.149 87.5678 106.034 87.576 106.641 87.0594ZM47.9864 25.7726V25.2724C47.9898 25.219 47.9824 25.1654 47.9647 25.1148C47.947 25.0643 47.9194 25.0178 47.8835 24.9781C47.8476 24.9384 47.8041 24.9062 47.7556 24.8835C47.7071 24.8608 47.6545 24.8481 47.601 24.846C47.4928 24.8437 47.388 24.8834 47.3085 24.9568C47.2289 25.0302 47.181 25.1316 47.1746 25.2396V25.7398C47.1746 25.8485 47.2178 25.9528 47.2947 26.0297C47.3716 26.1066 47.4759 26.1498 47.5846 26.1498C47.6934 26.1498 47.7977 26.1066 47.8745 26.0297C47.9514 25.9528 47.9946 25.8485 47.9946 25.7398L47.9864 25.7726ZM51.1188 26.9288C51.1721 26.937 51.2265 26.9345 51.2789 26.9216C51.3313 26.9087 51.3806 26.8856 51.424 26.8536C51.4674 26.8216 51.5041 26.7813 51.5319 26.7352C51.5598 26.689 51.5782 26.6377 51.5862 26.5844L51.6682 26.035C51.6763 25.9812 51.6737 25.9263 51.6606 25.8734C51.6474 25.8206 51.624 25.7709 51.5916 25.7271C51.5593 25.6833 51.5186 25.6463 51.472 25.6182C51.4253 25.5902 51.3736 25.5716 51.3197 25.5635C51.2659 25.5554 51.211 25.558 51.1582 25.5712C51.1053 25.5843 51.0556 25.6077 51.0118 25.6401C50.968 25.6725 50.931 25.7131 50.903 25.7598C50.8749 25.8064 50.8563 25.8582 50.8482 25.912L50.7662 26.4696C50.7523 26.5772 50.7815 26.686 50.8476 26.7721C50.9137 26.8582 51.0113 26.9145 51.1188 26.9288ZM128.633 70.93C128.741 70.9368 128.847 70.901 128.928 70.8305C129.009 70.7599 129.06 70.6601 129.068 70.5528V70.0854C129.071 70.0315 129.064 69.9776 129.046 69.9265C129.029 69.8755 129.001 69.8285 128.966 69.7881C128.93 69.7477 128.886 69.7148 128.838 69.6912C128.789 69.6677 128.737 69.6539 128.683 69.6508C128.575 69.6482 128.47 69.6866 128.39 69.7581C128.309 69.8296 128.258 69.9289 128.248 70.0362V70.4954C128.244 70.5495 128.25 70.604 128.267 70.6555C128.284 70.707 128.312 70.7545 128.348 70.7951C128.384 70.8357 128.428 70.8686 128.477 70.8918C128.526 70.915 128.579 70.928 128.633 70.93ZM124.64 70.356V69.9214C124.65 69.8127 124.616 69.7045 124.546 69.6207C124.476 69.5369 124.376 69.4843 124.267 69.4745C124.158 69.4647 124.05 69.4985 123.966 69.5685C123.882 69.6385 123.83 69.7389 123.82 69.8476C123.82 70.028 123.82 70.1674 123.779 70.2986C123.775 70.3524 123.782 70.4065 123.799 70.4577C123.816 70.5089 123.843 70.5562 123.879 70.5969C123.95 70.6792 124.052 70.7297 124.16 70.7373C124.269 70.7449 124.376 70.709 124.459 70.6375C124.541 70.566 124.591 70.4647 124.599 70.356H124.64ZM103.738 84.952C103.804 85.2882 103.853 85.5998 104.214 85.5998C104.279 85.5993 104.342 85.5835 104.4 85.5535C104.458 85.5236 104.507 85.4805 104.545 85.4276C104.582 85.3748 104.607 85.3138 104.616 85.2497C104.626 85.1855 104.62 85.12 104.599 85.0586C104.599 84.9848 104.55 84.8536 104.517 84.6896C104.507 84.637 104.485 84.5872 104.455 84.5429C104.425 84.4986 104.386 84.4608 104.341 84.4318C104.296 84.4028 104.245 84.383 104.193 84.3738C104.14 84.3646 104.086 84.366 104.033 84.378C103.928 84.4017 103.836 84.4653 103.776 84.5555C103.716 84.6457 103.694 84.7555 103.714 84.8618L103.738 84.952ZM107.863 84.5912C107.885 84.6999 107.949 84.7956 108.041 84.8571C108.133 84.9186 108.246 84.941 108.355 84.9192C108.464 84.8975 108.559 84.8334 108.621 84.7411C108.682 84.6489 108.705 84.5359 108.683 84.4272C108.683 84.3042 108.625 84.1484 108.601 84.05C108.576 83.9447 108.51 83.8537 108.417 83.7969C108.325 83.74 108.214 83.7219 108.109 83.7466C108.056 83.7581 108.006 83.7802 107.962 83.8114C107.918 83.8426 107.881 83.8823 107.853 83.9282C107.824 83.9741 107.806 84.0253 107.798 84.0786C107.789 84.1319 107.792 84.1863 107.805 84.2386C107.805 84.3288 107.838 84.46 107.863 84.5912ZM108.24 88.56C108.543 88.1418 108.42 87.5596 108.24 87.5596C108.06 87.5596 107.756 88.1172 107.576 88.2566C107.395 88.396 106.756 88.7322 106.756 88.8798C106.756 89.0274 107.805 89.1832 108.24 88.56Z" fill="black"/>
</g>
</g>
</svg>
