<svg width="156" height="154" viewBox="0 0 156 154" fill="none" xmlns="http://www.w3.org/2000/svg">
<g id="task-list--work-task-list">
<g id="notebook">
<path id="vector" d="M65.4106 82.909C66.0338 84.0627 66.2953 84.7761 67.0399 85.0196C69.1407 85.7052 70.1362 83.2156 72.6282 82.0676C73.3859 81.7183 73.6655 82.0676 74.0509 82.4063C74.7676 83.0377 75.6023 83.8741 76.8003 83.4092C78.5223 82.7384 79.4932 81.4461 81.6433 80.4391C83.2833 79.6724 84.1205 82.2259 86.6822 80.9803C87.8162 80.4293 87.7572 80.2522 90.4304 78.809C92.0474 77.9373 91.7112 81.1378 96.0523 79.0623C100.508 76.9303 100.816 76.4383 101.382 75.6651C101.466 75.5083 101.527 75.3404 101.564 75.1665C101.015 73.7897 99.8268 74.317 97.0789 75.5831C93.3537 77.2985 93.958 77.2575 92.7813 76.4203C90.7535 74.9779 88.0729 76.9779 85.7162 78.4252C85.2554 78.7081 85.029 78.4391 84.1172 77.9857C82.4264 77.1443 80.706 77.679 79.0922 78.7721C75.9762 80.8836 76.3862 81.0123 75.7302 80.3727C73.4539 78.1587 70.9496 79.7634 68.5733 81.8397C67.9402 82.3932 67.9517 82.4137 67.5376 81.6757C66.1805 79.2509 63.9026 80.3005 61.8239 82.1422C58.0297 85.5042 60.1609 86.3546 60.9547 85.7199C62.1215 84.5385 63.4543 83.5335 64.9112 82.7368C65.208 82.6088 65.2597 82.6302 65.4106 82.909Z" fill="black"/>
<path id="vector_2" d="M38.5637 26.2124C39.0475 25.8024 40.3431 23.3006 42.781 21.4384C46.635 18.4971 46.8974 20.6619 48.6792 23.0604C48.8504 23.3067 49.0804 23.5062 49.3484 23.6407C49.6165 23.7752 49.9139 23.8405 50.2136 23.8306C50.5134 23.8206 50.8058 23.7358 51.0643 23.5838C51.3228 23.4317 51.5392 23.2174 51.6936 22.9603C53.1327 21.0145 54.6062 18.4003 56.329 19.4868C57.5131 20.233 58.3159 20.93 59.3926 20.9874C61.8066 21.1137 63.7664 17.5549 65.1047 18.3224C68.2576 20.1346 69.6409 18.9669 73.9189 16.9817C75.4277 16.2814 76.1058 14.8202 74.6741 14.4126C72.506 13.7927 68.898 16.8923 67.176 16.1174C66.4091 15.6559 65.5428 15.3848 64.6496 15.3269C62.2002 15.3163 60.0928 18.5249 59.1613 17.9829C57.3983 16.953 55.4566 15.0424 52.1552 18.0379C50.22 19.7927 50.3512 20.7275 49.9117 20.0616C49.2966 18.9415 48.2943 18.0838 47.0926 17.6492C42.3792 16.4815 36.7204 24.1395 37.7544 26.046C37.7831 26.1235 37.8311 26.1924 37.8939 26.2462C37.9566 26.3 38.032 26.3369 38.1129 26.3536C38.1939 26.3702 38.2777 26.366 38.3566 26.3413C38.4354 26.3166 38.5067 26.2723 38.5637 26.2124Z" fill="black"/>
<path id="vector_3" d="M91.0331 99.3795C92.3032 100.225 93.2397 99.5206 94.4008 98.8629C96.3918 97.7362 96.5271 97.5058 96.9936 97.8018C97.7736 98.1513 98.6573 98.1905 99.4651 97.9117C106.496 95.8338 106.142 93.6477 104.931 93.6477C101.713 93.6412 99.1092 95.7904 97.8251 95.1442C96.4557 94.4562 95.4242 95.1565 93.94 95.9757C92.4254 96.8121 92.4525 96.9941 92.1589 96.8014C90.1425 95.4853 88.7362 96.2799 86.1467 97.5083C83.0774 98.9638 83.6973 98.7334 82.4673 98.0921C79.002 96.2881 74.1329 101.143 73.2013 100.399C72.4855 99.7722 71.563 99.4328 70.6118 99.4459C67.1186 99.4459 61.4401 105.123 64.0747 105.432C64.8127 105.514 64.953 104.928 65.6516 104.406C67.6311 102.924 68.6233 102.192 69.932 101.85C71.9279 101.329 71.8106 104.474 75.4998 102.511C80.7298 99.7305 80.5567 100.051 81.9688 100.919C84.3328 102.371 85.9048 100.061 89.7358 98.9097C90.3623 98.7186 90.5616 99.0655 91.0331 99.3795Z" fill="black"/>
<path id="vector_4" d="M71.212 59.0404C70.556 59.5061 69.8295 57.3717 67.0595 58.2204C65.5799 58.7706 64.2118 59.5834 63.021 60.6197C62.7521 60.8272 62.6873 60.614 62.1502 60.1097C59.8911 57.9883 55.3262 61.9301 54.7907 63.6242C54.6521 64.0637 55.2007 64.5959 55.6107 64.3343C57.5311 63.1232 59.869 60.7903 60.871 62.0875C61.3302 62.6812 61.75 63.4651 62.757 63.4323C63.4811 63.4093 63.905 62.9739 64.5479 62.5205C68.187 59.9678 68.1805 60.2245 69.458 61.3569C71.317 63.0092 72.7799 60.7181 74.893 59.8981C75.1439 59.8005 75.1989 59.8054 75.3555 59.9981C77.8622 63.0731 79.0127 61.3593 82.5387 59.0502C84.2221 57.949 85.2791 58.4328 87.489 58.7722C89.9522 58.5035 92.3532 57.8259 94.5935 56.7673C97.1355 55.3168 95.8842 53.9793 92.0966 54.9765C88.8683 55.8276 87.9859 56.2065 86.7912 55.9162C82.6445 54.9158 80.879 57.0707 78.2411 58.7501C77.0258 59.5258 77.3981 54.6444 71.212 59.0404Z" fill="black"/>
<path id="vector_5" d="M49.0401 92.5653C51.3582 92.056 51.8658 91.7239 51.8174 90.8334C51.5501 85.9298 50.4931 84.9819 51.3426 84.2464C52.6883 83.0811 54.1101 81.5141 55.3287 80.2784C55.8895 79.7093 56.0388 78.7876 55.2106 78.7425C54.3324 78.695 51.0679 81.6256 50.6522 81.993C50.4169 82.2005 50.4964 82.1283 49.9404 80.3997C49.7223 79.7216 49.2754 79.8159 48.5637 79.8159C48.5481 79.6388 42.9877 80.4186 40.8557 80.9803C38.3301 81.647 37.7044 81.6363 37.9037 83.232C38.2177 85.692 39.1443 90.243 39.442 91.6198C40.098 94.6776 40.8458 93.7953 43.2525 93.5673C45.1972 93.3303 47.1289 92.9958 49.0401 92.5653ZM40.804 92.7727C40.476 92.7998 40.7974 92.7727 39.8602 87.1237C39.1066 82.5809 38.7122 82.7244 39.0016 82.5834C39.6913 82.2472 43.2279 82.1062 48.781 80.8393C49.0655 80.7745 49.036 80.9213 49.2361 82.1808C49.3673 83.0008 49.4361 83.2091 49.1541 83.3599C49.036 83.4231 49.0721 83.4018 45.8273 86.5358C45.0426 87.2927 45.8216 82.6818 43.5313 83.2189C43.2856 83.21 43.0448 83.289 42.8521 83.4417C42.6594 83.5944 42.5275 83.8108 42.4801 84.052C42.1783 84.8999 43.2009 88.0946 43.5608 89.068C43.9028 89.9929 44.0897 90.5604 44.822 90.5235C45.979 90.5604 45.9905 89.4501 49.6723 85.9372C49.9765 85.6469 49.8363 85.6354 50.5259 88.6621C50.7276 89.3771 50.8916 90.1028 51.0179 90.8351C50.9704 91.2 45.7757 91.7617 43.4936 92.3529C43.478 92.357 40.8942 92.7653 40.804 92.7727Z" fill="black"/>
<path id="vector_6" d="M58.2257 98.1905C55.3762 99.8535 54.3176 101.661 54.097 101.068C53.9802 100.53 53.8127 100.004 53.5968 99.4968C53.4017 98.9572 52.9646 99.0458 52.3348 99.0458C52.3348 98.8203 43.4305 100.163 42.216 100.911C41.2673 101.496 41.4534 101.75 42.3669 106.758C43.246 111.575 43.3993 111.712 43.738 112.505C44.043 113.219 44.5129 113.213 47.9536 112.686C50.2825 112.404 52.5785 111.897 54.8088 111.169C55.6755 110.846 55.8084 110.695 55.0851 106.291C54.6907 103.889 54.557 103.865 54.9851 103.463C57.5845 101.021 57.4213 101.044 58.8292 99.6263C59.8313 98.6177 59.0654 97.7001 58.2257 98.1905ZM54.7325 109.893C54.8293 110.402 54.7973 110.17 48.7006 111.244C44.1365 112.049 44.362 112.099 44.3423 111.797C44.2439 110.267 43.4641 105.534 43.4575 105.497C42.8343 101.799 42.4399 101.875 42.7499 101.799C44.3644 101.409 48.1061 101.051 50.1577 100.569C53.6017 99.7592 52.4759 99.7715 52.9884 101.619C53.0366 101.721 53.064 101.831 53.0692 101.944C53.0743 102.056 53.0571 102.169 53.0184 102.275C52.9797 102.38 52.9204 102.477 52.8439 102.56C52.7673 102.643 52.6751 102.71 52.5726 102.756C48.9343 106.268 49.1926 106.177 49.0466 105.785C48.5989 104.591 48.9704 101.859 46.5866 102.662C46.3377 102.797 46.1416 103.011 46.0301 103.271C45.9186 103.531 45.8983 103.821 45.9725 104.095C46.1857 105.581 46.5604 107.04 47.0885 108.446C47.5649 109.722 47.6854 109.872 48.4005 109.851C48.5662 109.866 48.733 109.84 48.8859 109.774C49.0387 109.708 49.1727 109.605 49.2754 109.475C51.0499 107.474 53.2434 105.204 53.414 105.047C53.6821 104.795 53.6928 105.349 53.8535 106.067C54.712 109.893 54.7284 109.873 54.7325 109.893Z" fill="black"/>
<path id="vector_7" d="M43.9183 50.5641C43.2402 44.7937 42.3546 46.7707 45.0032 44.1148C47.478 41.6334 47.7281 41.5416 47.7092 40.8266C47.6543 39.0037 44.3251 42.0812 42.9196 43.2456C42.5506 43.5522 42.6596 43.2046 42.1816 41.9081C41.9889 41.3809 41.6404 41.3341 41.0656 41.3653C37.8811 41.5146 34.7251 42.0358 31.6618 42.9184C31.0165 43.0988 30.1768 43.3169 30.1235 44.05C30.3219 45.9606 30.6171 47.8605 31.0099 49.7408C32.2137 55.8621 32.2752 55.325 33.5445 55.325C33.5445 55.2873 40.64 54.7887 43.5698 53.3832C44.1266 53.1159 44.1791 52.7789 43.9183 50.5641ZM43.2623 52.4041C43.209 52.6985 35.5183 53.8933 34.6614 54.0343C32.9353 54.3188 32.9016 54.491 32.868 54.0909C32.7442 52.61 31.9094 46.3214 31.1682 44.3567C30.9484 43.7745 31.9636 44.3009 41.0475 42.3714C41.3755 42.3009 41.2304 42.4534 41.5617 44.1443C41.6437 44.5764 41.5379 44.3468 38.3136 47.485C37.2878 48.4829 37.7232 48.9011 36.9738 45.7097C36.6269 44.2337 34.0291 44.4485 34.4104 46.3435C34.6424 48.1067 35.1279 49.827 35.852 51.4513C35.9293 51.6381 36.0574 51.7996 36.2217 51.9174C36.3861 52.0352 36.5801 52.1047 36.7819 52.118C37.6445 52.0802 37.8979 51.4062 39.2042 50.0171C42.1627 46.8716 42.0528 46.9872 42.1086 47.2045C42.1644 47.4218 42.2373 47.6383 42.2726 47.8605C42.7613 50.6895 43.3189 52.1081 43.2656 52.4033L43.2623 52.4041Z" fill="black"/>
<path id="vector_8" d="M47.7912 71.898C47.7322 68.864 46.7391 65.5086 46.986 65.1822C47.2328 64.8542 50.6637 61.5997 51.1171 60.9387C51.5189 60.3524 50.9835 59.5045 50.2463 59.917C47.5788 61.4061 46.5497 62.992 46.357 62.6353C46.3193 62.5664 46.3833 62.6255 45.9224 61.1954C45.8762 61.0043 45.762 60.8365 45.6012 60.7233C45.4403 60.6101 45.2438 60.5593 45.0483 60.5804C43.4903 60.5943 33.8963 61.5726 33.8471 63.3061C34.0404 65.2347 34.3415 67.1511 34.7491 69.0461C35.9463 75.0526 35.9406 74.5458 37.2977 74.5458C37.2985 74.6204 47.824 73.529 47.7904 71.8972L47.7912 71.898ZM41.9594 72.636C36.5474 73.6241 36.6294 73.6233 36.6048 73.4003C36.3473 71.2027 35.6708 65.6357 34.8877 63.5685C34.6933 63.0535 37.1017 63.2134 43.2812 61.9178C44.749 61.6103 44.9589 61.4422 45.0212 61.7981C45.3492 63.6923 45.4353 63.6972 45.0762 64.0326C40.8474 67.9751 41.1057 68.0121 40.9606 67.5455C40.6408 66.5156 40.79 64.3434 39.3042 64.2655C38.2661 64.2089 37.6265 64.8501 37.9758 66.404C38.6252 69.2954 39.3222 73.046 41.2476 71.1953C41.6789 70.7804 41.182 71.1346 45.6682 66.4942C45.9036 66.2843 45.9552 66.6804 46.1077 67.6242C46.3373 69.0428 46.9523 71.2051 46.9983 71.5979C47.0376 71.9226 43.8675 72.2842 41.9594 72.6327V72.636Z" fill="black"/>
<path id="vector_9" d="M37.501 32.7643C40.5186 33.6663 74.7372 25.9329 77.7991 25.199C82.5166 24.0674 82.6371 24.1552 82.6888 23.696C82.7618 23.0842 82.0689 23.0605 81.9139 23.0293C75.1899 23.5508 41.8159 30.1289 37.8126 31.4851C37.1968 31.6934 36.7647 32.5446 37.501 32.7643Z" fill="black"/>
<path id="vector_10" d="M110.381 112.499C108.388 111.794 105.665 114.057 102.729 113.865C100.047 113.688 99.3323 114.393 94.9437 116.799C93.3119 117.693 93.3627 113.978 87.5637 117.028C85.4136 118.16 86.3821 121.135 88.9856 119.67C89.7573 119.272 90.561 118.94 91.3882 118.676C91.6907 118.772 92.0335 118.75 92.2967 118.984C94.4443 120.892 96.6763 118.902 100.127 117.065C101.855 116.145 103.113 116.913 105.052 116.43C110.912 114.972 111.587 112.926 110.381 112.499Z" fill="black"/>
<path id="vector_11" d="M59.6476 44.1622C61.2876 45.4218 61.9731 42.8994 64.0945 41.9556C65.4163 41.3669 66.0698 42.1311 66.9046 42.7149C67.9944 43.4751 69.0727 42.1573 69.7 41.667C73.668 38.5641 73.882 41.3619 76.3608 40.469C77.4441 40.0778 80.1558 38.8175 80.5822 37.7482C80.7462 37.3439 80.2485 36.6617 79.3817 36.9143C75.9377 37.9179 76.3608 38.5543 74.5347 38.0344C71.9517 37.2964 69.9058 38.5403 67.8624 40.2845C67.0424 40.9815 66.5873 38.9725 63.6139 39.9483C62.6798 40.2913 61.8297 40.8297 61.1203 41.5276C60.4537 42.1344 60.6956 42.0745 59.9945 41.5866C57.7222 40.0032 55.2163 41.9638 53.0983 43.8638C52.243 44.6305 52.653 46.4878 54.065 45.4488C58.5882 42.1336 58.0781 42.9609 59.6476 44.1622Z" fill="black"/>
<path id="Subtract" fill-rule="evenodd" clip-rule="evenodd" d="M107.55 3.98148C108.533 6.79818 119.277 54.4935 128.102 100.167C133.621 128.726 133.826 130.139 133.843 130.138L133.844 130.126C134.091 131.233 133.654 131.725 129.964 132.627C121.698 134.651 104.508 138.058 86.9249 141.371C86.7147 139.999 86.4995 138.628 86.2795 137.258C130.14 129.123 130.075 128.773 129.949 128.097C123.197 91.5731 118.677 68.2719 103.666 1.42964C103.382 0.164379 11.6284 17.2401 7.72435 18.3643C7.28565 18.4889 7.32255 18.6595 7.57921 19.8452C7.74321 20.6053 7.99905 21.7837 8.27703 23.6344C8.31475 23.8837 8.49843 23.8517 9.10523 23.7484C9.82355 23.6254 11.1356 23.4007 13.5004 23.4188C13.744 23.4204 13.771 23.3507 13.8104 23.2441C13.8596 23.1104 13.9309 22.9202 14.4779 22.7423C15.4834 22.4354 16.5158 22.2246 17.5611 22.1125C18.7476 21.919 18.8362 22.1141 19.4536 26.2806C19.4791 26.5257 19.4848 26.7726 19.4692 27.0186C19.4732 27.1007 19.4462 27.1814 19.3935 27.2446C19.3408 27.3078 19.2662 27.3489 19.1847 27.3597C17.8097 27.8473 16.3559 28.0747 14.8977 28.0304C14.6829 28.0296 14.6435 27.8828 14.605 27.7352C14.5599 27.5688 14.5148 27.399 14.213 27.4359C9.08638 28.0542 9.08801 28.0657 9.18477 28.57L9.18559 28.5757C10.4427 35.2169 10.4566 36.1739 10.7493 36.2673C10.7977 36.2837 10.8543 36.2755 10.9256 36.2649C12.3591 35.9915 13.8127 35.8379 15.2716 35.8057C15.3512 35.8024 15.4356 35.8155 15.5176 35.8278C15.6488 35.8467 15.7784 35.8664 15.8858 35.8254C15.9859 35.7876 16.0252 35.7253 16.0769 35.6458C16.2499 35.3776 16.5492 34.9143 19.7144 34.5404C20.3614 34.4642 20.7697 34.4461 20.9206 34.9504C21.3733 36.401 21.6389 37.9024 21.7095 39.4202C21.6824 39.9467 19.4454 40.3362 19.0354 40.3739L18.8452 40.3919C17.056 40.5568 16.9551 40.5666 16.81 40.109C16.769 39.9828 16.755 39.9073 16.7099 39.868C16.6058 39.7802 16.3417 39.8794 15.2479 39.9934C14.1349 40.1013 13.0285 40.2689 11.9334 40.4953C11.4996 40.5723 11.4094 40.6601 11.4545 40.8856C12.7428 47.2881 12.7059 48.2098 12.9551 48.2951C12.9945 48.309 13.0429 48.3008 13.1044 48.2902C14.7149 47.9666 16.3557 47.8179 17.9981 47.8466C18.2655 47.8441 18.336 47.7334 18.4221 47.5973C18.5205 47.4431 18.6386 47.257 19.0846 47.1561C19.8244 46.93 20.5817 46.7654 21.3487 46.6641C21.4946 46.6436 21.6348 46.6207 21.7669 46.5985C22.5491 46.4698 23.0977 46.3788 23.288 47.0741C23.657 48.3615 23.9177 49.6784 24.0653 51.0101C24.0817 51.6604 24.0571 51.6686 23.4192 51.876L23.4093 51.8793C22.1842 52.301 20.8932 52.4991 19.598 52.464C19.2659 52.4394 19.2076 52.2639 19.156 52.1081C19.1084 51.9638 19.0658 51.8375 18.8173 51.8613C17.1415 52.0134 15.4763 52.2664 13.8309 52.619C13.7874 52.6313 13.7538 52.6403 13.7292 52.66C13.5865 52.7821 13.785 53.3045 14.5336 57.165C15.0092 59.6209 14.9904 60.4483 15.3315 60.6418C15.6972 60.8501 16.477 60.3294 18.7255 60.304C19.0961 60.2999 19.3897 60.3007 19.6258 60.3015C20.4844 60.304 20.5557 60.304 20.6631 60.0465C20.7144 59.9436 20.788 59.8534 20.8785 59.7825C20.969 59.7116 21.0741 59.6617 21.1863 59.6365C21.2273 59.6259 21.2913 59.6062 21.3749 59.5816C22.2433 59.3241 25.2092 58.4442 25.5192 59.5135C25.912 60.9141 26.1752 62.3475 26.3039 63.7956C26.2637 64.2884 24.8894 64.6213 24.3974 64.682C24.0858 64.7205 23.7947 64.7632 23.5249 64.8025C22.3113 64.9796 21.5373 65.0928 21.3495 64.4737C21.2986 64.3072 21.2199 64.2736 21.028 64.299C19.9907 64.4376 19.1601 64.5393 18.4983 64.6197C16.3811 64.8788 15.985 64.9272 16.0613 65.3019C17.3192 71.4249 17.3011 72.5048 17.6324 72.6261C17.7013 72.6507 17.7849 72.6343 17.8989 72.6138C19.5257 72.2884 21.1832 72.1411 22.8419 72.1743C23.0633 72.1809 23.1248 72.0767 23.2043 71.9447C23.2929 71.7955 23.4036 71.611 23.7841 71.5036C24.8839 71.1805 26.0131 70.9676 27.1551 70.8681C27.9554 70.7319 28.0833 71.1149 28.3851 72.6237L28.3998 72.6991C28.9911 75.6536 29.0616 76.0037 28.3851 76.1743C27.0001 76.5211 24.8902 76.9459 24.8681 76.7934C24.791 76.7934 24.7164 76.7958 24.6451 76.7983C24.2539 76.8122 23.9645 76.8229 23.8956 76.3678C23.8324 75.9726 20.8927 76.5072 19.4733 76.7663C19.2856 76.8003 19.0979 76.8336 18.91 76.8664C18.5402 76.9279 18.3245 76.9639 18.3737 77.2313C18.5287 78.0857 18.6197 78.5285 18.8444 79.6109C18.9944 80.3382 19.2052 81.355 19.5348 82.9803C19.6447 83.5256 19.7136 83.9282 19.7644 84.225C19.8874 84.9425 19.9038 85.0385 20.1449 85.0303C20.7963 84.9954 21.4445 84.9159 22.085 84.7925C23.1215 84.5809 23.9038 84.6096 24.4507 84.6293C25.0026 84.6498 25.315 84.6613 25.4077 84.4079C25.6504 83.7421 28.4982 83.3944 29.4068 83.2829L29.529 83.2681C30.1481 83.191 30.3678 83.7412 30.513 84.5334C31.1862 88.2135 31.1641 88.4587 30.6893 88.5817C29.9595 88.84 29.2051 89.0245 28.4376 89.1311C28.1752 89.1491 27.9242 89.1762 27.6897 89.2016C26.9066 89.2869 26.3179 89.3509 26.1916 88.972L26.1817 88.9409C26.0604 88.5489 26.0415 88.489 21.1896 89.2664C21.1594 89.2731 21.1305 89.2842 21.1035 89.2992C21.0738 89.3163 21.0413 89.328 21.0075 89.3336C20.8173 89.35 20.805 89.473 20.8329 89.6116C22.1309 96.1364 22.2113 96.9211 22.486 96.9957C22.5254 97.0064 22.568 97.0023 22.6197 96.999C22.7689 96.9883 22.8919 96.9678 23.0633 96.94C23.4265 96.8801 24.0079 96.785 25.5184 96.6669C26.249 96.6103 26.7197 96.6103 27.0345 96.6103C27.5224 96.6112 27.634 96.6111 27.7602 96.3963C27.8736 96.2358 28.0202 96.1015 28.1899 96.0025C28.3597 95.9035 28.5487 95.842 28.7442 95.8223C29.2854 95.6616 29.8406 95.5517 30.4023 95.4943C30.7774 95.4796 31.1506 95.4322 31.5175 95.3524C32.6499 95.1319 32.7032 95.1212 33.3797 99.4934C33.4341 99.7195 33.4062 99.9576 33.301 100.165C33.1959 100.372 33.0202 100.535 32.8057 100.625C31.5675 101.011 30.2801 101.212 28.9829 101.221C28.6057 101.242 28.5515 101.065 28.4991 100.898C28.4499 100.739 28.4015 100.588 28.085 100.619L27.916 100.635C27.3215 100.689 26.4302 100.77 25.5758 100.919C23.7767 101.229 23.3437 101.29 23.2765 101.48C23.2535 101.547 23.274 101.627 23.297 101.739C23.6496 103.451 23.821 104.288 23.9382 104.863C24.1539 105.921 24.1883 106.092 24.846 109.187C24.9042 109.463 24.914 109.461 25.543 109.36C25.8956 109.303 26.4441 109.215 27.306 109.126C28.2818 109.028 28.8968 109.043 29.2887 109.054C29.7635 109.066 29.9144 109.07 29.9898 108.853C30.0426 108.724 30.1281 108.611 30.2379 108.526C30.3476 108.44 30.4777 108.385 30.6155 108.365C31.2141 108.173 31.8291 108.036 32.4531 107.955C32.9287 107.918 33.3034 107.844 33.606 107.783C34.6089 107.584 34.8114 107.543 35.219 109.583C35.4174 110.53 35.5552 111.488 35.629 112.453C35.6208 112.794 35.5306 112.923 35.219 113.027C34.378 113.308 33.5084 113.495 32.6261 113.584C31.1099 113.738 30.7959 113.735 30.7213 113.311C30.6639 113 30.5187 113.018 29.2756 113.163C29.0362 113.192 28.7549 113.224 28.4253 113.26C27.5993 113.339 26.7802 113.478 25.9751 113.679C25.7496 113.738 25.7734 113.847 25.9275 114.557C25.9603 114.704 25.9972 114.878 26.0399 115.082C26.1096 115.436 27.5577 122.421 27.6676 122.766C27.7381 122.986 27.8316 122.968 28.408 122.854C29.1295 122.707 29.857 122.592 30.5884 122.508C31.4133 122.412 31.9414 122.41 32.2924 122.409C32.6581 122.408 32.8319 122.408 32.95 122.301C33.5835 121.737 34.3671 121.368 35.2058 121.24C35.6273 121.207 36.0462 121.146 36.4596 121.058C37.8307 120.788 37.9897 120.756 38.6876 125.005L38.7007 125.085C38.7728 125.515 38.8729 126.116 38.4875 126.193C38.2571 126.238 38.0406 126.325 37.8233 126.413C37.5617 126.519 37.3001 126.626 37.0115 126.658C36.1556 126.834 35.2884 126.95 34.4162 127.004C33.9734 126.991 33.9258 126.803 33.8832 126.64C33.8471 126.498 33.8159 126.375 33.5298 126.404C32.4482 126.496 31.374 126.66 30.3145 126.896C28.5966 127.223 28.5983 127.236 28.6598 127.58L28.6631 127.599C28.7106 127.87 29.4519 131.433 29.5437 131.871C30.1382 134.689 30.1809 135.255 30.3851 135.322C30.4359 135.338 30.4966 135.323 30.5778 135.305C32.1289 134.959 33.7118 134.775 35.301 134.756C35.5273 134.744 35.5584 134.663 35.6011 134.553C35.6544 134.415 35.7257 134.229 36.221 134.074C37.3063 133.699 38.4329 133.456 39.5764 133.352C40.3677 133.231 40.435 133.454 40.9204 135.586C41.451 137.91 41.5321 138.383 40.9909 138.577C39.6953 139.04 38.3382 139.305 36.9639 139.362C36.7089 139.361 36.5187 139.327 36.4719 139.022C36.4211 138.689 36.2144 138.72 35.1296 138.881L34.9713 138.904C33.6806 139.096 33.2731 139.167 31.3953 139.572C31.3542 139.576 31.3146 139.59 31.2797 139.612C31.0976 139.76 31.4281 140.539 32.6901 146.788V146.789C32.736 147.015 32.7499 147.084 34.7475 146.719C38.5998 146.016 42.2956 145.34 45.8429 144.692C46.1594 146.09 46.4825 147.42 46.808 148.65C41.5723 149.555 37.583 150.214 35.5109 150.511C34.6745 150.632 34.5539 150.083 34.3703 149.249C34.3284 149.059 34.2833 148.855 34.2259 148.64C34.0619 148.029 34.0455 148.032 33.3485 148.108C33.2214 148.122 33.0722 148.138 32.8959 148.154C32.5581 148.184 32.3301 148.207 32.153 148.123C31.6995 147.905 31.5855 146.979 30.809 143.644C30.7565 143.405 30.7049 143.24 30.5105 143.289C29.3379 143.584 26.0719 143.954 24.6934 143.018C24.4302 142.827 24.248 142.544 24.1829 142.226C24.1178 141.907 24.1744 141.575 24.3417 141.296C24.5155 141.077 24.2416 140.981 24.0711 140.921C24.0399 140.911 24.0092 140.9 23.9792 140.886C21.7628 139.81 22.7451 137.93 25.3798 136.828C27.1608 136.083 28.0694 135.868 28.5245 135.76C28.9738 135.653 28.982 135.651 28.9517 135.347C28.9238 135.068 28.832 134.659 28.6524 133.857C28.5155 133.246 28.3269 132.407 28.0768 131.223C28.0243 130.979 28.0128 130.981 27.3511 131.044C26.8279 131.095 25.8997 131.184 24.2228 131.223C22.6279 131.259 21.1068 130.485 21.7259 128.982C21.8374 128.717 21.8218 128.711 21.5717 128.6C21.3718 128.515 21.1781 128.416 20.992 128.303C20.7905 128.195 20.6165 128.042 20.4834 127.856C20.3502 127.67 20.2613 127.456 20.2236 127.231C20.1855 127.005 20.1991 126.774 20.2637 126.555C20.3282 126.336 20.4418 126.134 20.5959 125.965C21.5733 124.748 24.4286 123.738 25.8628 123.436C26.1858 123.367 26.3941 123.277 26.3211 122.973C25.9491 121.442 25.6256 119.901 25.3511 118.35C25.1871 117.435 25.1641 117.302 24.9599 117.36C24.0653 117.618 20.5262 118.066 18.9051 117.055C18.6134 116.853 18.4139 116.543 18.3503 116.194C18.2866 115.845 18.3641 115.485 18.5656 115.193C18.6673 115.034 18.5853 114.996 18.3163 114.874C18.1281 114.791 17.9442 114.698 17.7653 114.597C16.5828 113.923 16.5254 112.148 19.4717 110.918C21.2814 110.162 22.322 109.952 22.887 109.838C23.3987 109.734 23.52 109.709 23.4675 109.43C23.2508 108.262 23.0198 107.097 22.7746 105.935L22.6713 105.439C22.5778 104.987 22.5582 104.99 22.0079 105.072C21.4922 105.149 20.5106 105.296 18.5656 105.201C17.015 105.127 15.5578 104.262 16.2696 102.86C16.3319 102.737 16.3713 102.675 16.3598 102.627C16.3344 102.528 16.1007 102.483 15.4266 102.093C14.7887 101.724 14.0597 100.24 16.4459 98.876C17.7917 98.2309 19.205 97.7375 20.6599 97.4049C20.7509 97.3787 20.8198 97.3606 20.8649 97.3188C21.0453 97.1466 20.8411 96.5677 20.2121 93.3352C20.2096 93.3227 20.2071 93.3101 20.2048 93.2975C20.1523 93.0138 20.149 92.9958 18.3885 93.2016C16.2991 93.446 13.0617 92.9933 13.8473 91.0442C13.8799 90.9655 13.9155 90.8881 13.9539 90.8121C14.0662 90.5809 14.0769 90.5595 13.7063 90.4554C13.4121 90.3791 13.1442 90.2244 12.931 90.0078C12.7179 89.7911 12.5675 89.5208 12.4959 89.2254C12.1729 87.7191 14.063 86.8048 15.3463 86.3087C16.7042 85.7839 17.5135 85.5977 17.9801 85.4903C18.532 85.3632 18.6033 85.3468 18.5369 85.0098C17.7718 81.1533 17.7497 80.9852 17.6865 80.8352L17.666 80.7892C17.589 80.6113 17.4938 80.6277 17.1494 80.6843C16.687 80.7605 15.7718 80.9122 13.8375 80.7679C13.2261 80.7048 12.6647 80.402 12.2762 79.9258C12.084 79.6897 11.9402 79.4181 11.8531 79.1264C11.7661 78.8347 11.7373 78.5287 11.7686 78.2259C11.7702 78.1587 11.7178 78.1308 11.5816 78.0619C11.2362 77.9176 10.9168 77.7176 10.6362 77.4699C10.3766 77.2066 10.2267 76.8544 10.217 76.4848C10.2073 76.1151 10.3383 75.7556 10.5837 75.4789C11.6825 74.185 14.0613 73.474 15.7087 73.064C15.8825 73.0214 15.9957 73.0033 16.0572 72.9369C16.1933 72.7901 16.0736 72.4047 15.7907 70.9738C15.4414 69.2084 15.4201 68.8246 15.2593 68.7516C15.2085 68.7295 15.1445 68.7377 15.0527 68.7434C14.87 68.7557 14.6874 68.7699 14.5049 68.7861C13.1487 68.9009 10.728 69.1067 9.52917 68.2769C9.26578 68.1064 9.07607 67.8432 8.99769 67.5394C8.91932 67.2356 8.958 66.9135 9.10605 66.6369C9.27989 66.2875 9.26267 66.2793 8.88793 66.1071C6.99947 65.2371 7.00439 63.2716 10.8773 61.8702C12.2352 61.379 12.9888 61.2109 13.3979 61.1199C13.8547 61.0182 13.8801 61.0133 13.8366 60.7583C13.5062 58.8706 13.3446 58.0687 13.2397 57.5529C13.1736 57.2408 13.1161 56.9269 13.0675 56.6115C13.0125 56.2483 12.915 56.2639 12.4262 56.3442C11.9408 56.4229 11.0708 56.5648 9.47423 56.4623C7.72271 56.35 6.21227 55.6161 6.87975 54.2106L6.89452 54.1802C6.98799 53.9826 7.07163 53.808 6.82809 53.7342C4.93307 53.1544 4.68051 50.9191 7.89901 49.7285C8.48777 49.5112 10.7067 48.7584 11.3242 48.6461C11.6153 48.5919 11.5136 48.1245 11.2996 47.1348C11.106 46.2759 10.9455 45.4099 10.8182 44.5387C10.7805 44.2763 10.6436 44.2828 10.2844 44.3214C8.76247 44.4796 5.86705 44.7625 4.78465 43.6596C4.16637 43.0307 4.45173 42.4009 4.59687 42.0803C4.64115 41.9827 4.67231 41.9139 4.66084 41.8827C4.63377 41.8089 4.52881 41.7613 4.37629 41.6933C4.08009 41.5725 3.80834 41.3989 3.57434 41.1808C2.46816 40.1287 3.39967 38.8446 4.73381 38.1287C6.08778 37.4623 7.52043 36.9694 8.99781 36.6618C9.11917 36.6322 9.20527 36.6126 9.26021 36.5584C9.46685 36.3534 9.19215 35.6597 8.55583 32.0911L8.55419 32.0804C8.51565 31.8475 8.50335 31.7746 6.95765 31.9878C5.17661 32.2321 1.89579 31.9796 2.18361 30.1903C2.23199 29.9689 2.30743 29.7557 2.40911 29.5532C2.47553 29.4023 2.39763 29.367 2.18279 29.2727C2.031 29.2077 1.88314 29.1337 1.73999 29.0513C1.51325 28.9441 1.3166 28.7823 1.16761 28.5805C1.01863 28.3787 0.921953 28.1432 0.886218 27.8949C0.850483 27.6466 0.876803 27.3934 0.962827 27.1577C1.04885 26.9221 1.1919 26.7115 1.37919 26.5446C2.36319 25.4401 4.99621 24.6496 6.05319 24.3888C6.21391 24.3495 6.35167 24.3175 6.46811 24.2904C7.07655 24.1502 7.12575 24.1387 7.06753 23.7886C6.82645 22.3159 6.59849 21.2056 6.42547 20.361C5.88427 17.7206 5.87361 17.6689 7.63005 17.2548C12.4451 16.1191 62.4364 5.6182 101.356 0.288199C103.141 0.0438391 103.855 -0.137381 104.238 0.138959C104.579 0.384959 104.66 0.989299 104.998 2.22832C105.067 2.47924 105.135 2.51204 106.385 2.34804C107.176 2.24472 107.293 2.8261 107.413 3.42716C107.452 3.61658 107.49 3.80846 107.55 3.98148ZM6.25409 25.987C3.88101 26.7045 3.44887 26.8349 2.92981 27.3367C2.44109 27.809 3.56777 28.1264 4.24837 28.1485C4.70347 28.0132 5.15037 27.8517 5.58579 27.6647C6.01507 27.5156 6.44701 27.3743 6.88139 27.2408C7.57512 27.0251 7.61857 27.0112 7.57839 26.7521C7.55215 26.5774 7.53247 26.429 7.51525 26.3035C7.43653 25.7098 7.42669 25.6311 7.07491 25.7385L6.25409 25.987ZM4.85599 30.5044C5.87612 30.5854 6.90258 30.5193 7.90393 30.3084L7.93919 30.2977C8.17453 30.228 8.19093 30.2239 8.15895 29.9689C7.97855 28.5921 7.94903 28.4987 7.65465 28.588C3.63911 29.8156 4.21803 30.5044 4.85599 30.5044ZM8.73869 26.1707L8.80593 26.4913H8.80675C8.86169 26.7586 9.51195 26.6176 10.4443 26.4159C11.3988 26.2092 12.6485 25.9394 13.8522 25.9796C14.0999 25.9878 14.0703 25.8312 14.0179 25.5508C13.9879 25.4049 13.9673 25.2573 13.9564 25.1088C13.9416 24.8734 13.876 24.8751 13.4053 24.8825C13.3028 24.8841 13.1806 24.8866 13.0363 24.8866C13.0306 24.8423 9.46685 25.1924 8.87809 25.3343C8.57469 25.4081 8.59929 25.5171 8.73869 26.1707ZM9.32417 38.1525C8.13025 38.4444 6.96257 38.8372 5.83507 39.3276C3.86461 40.3173 6.16799 40.797 7.08475 40.396C8.05891 39.9713 8.72229 39.7868 9.15361 39.6662C9.67841 39.5203 9.85882 39.4694 9.83667 39.1997C9.81454 39.0512 9.79649 38.9209 9.78173 38.8077C9.69973 38.1968 9.68333 38.0795 9.32417 38.1525ZM7.10607 42.9438C8.12615 43.0192 9.15197 42.9536 10.154 42.7503L10.1917 42.7421C10.4336 42.6871 10.4509 42.6838 10.4172 42.4149C10.2418 41.0233 10.2032 40.9241 9.86947 41.0143C7.13231 41.7499 5.81375 42.9257 7.10607 42.9438ZM11.1372 37.7581C10.819 37.8048 10.8584 38.0049 11.1134 38.9627C11.161 39.1406 11.2758 39.1119 11.7063 39.0053C11.9539 38.9438 12.3057 38.8577 12.8092 38.7683C13.8851 38.5239 14.9859 38.4067 16.0892 38.419C16.3565 38.3911 16.3524 38.2345 16.1622 37.3916C16.0793 37.0267 11.5054 37.7032 11.1372 37.7581ZM11.352 50.2533C10.1696 50.5763 8.27047 51.0954 7.49229 51.8022C7.00029 52.2491 8.12205 52.5435 8.78707 52.5788C9.19592 52.4632 9.59948 52.3297 9.99657 52.1786C10.2756 52.0742 10.5558 51.9728 10.8371 51.8744C11.1388 51.7678 11.3734 51.6948 11.5521 51.6391C12.0113 51.4947 12.113 51.4636 12.0761 51.2799C12.0438 51.117 12.0129 50.9538 11.9834 50.7904C11.8768 50.2057 11.8604 50.1155 11.6112 50.1819L11.352 50.2533ZM9.10277 54.4164C8.38281 55.2364 11.1938 54.9453 12.2762 54.8051C12.6509 54.7567 12.7206 54.6345 12.6509 54.295C12.6017 54.0548 12.5656 53.8563 12.5361 53.694C12.4172 53.0322 12.4057 52.9683 11.9884 53.1003L11.6284 53.2151C10.4123 53.6005 9.58985 53.8621 9.10277 54.4164ZM13.3209 49.8055C13.2003 49.8269 13.1388 49.89 13.1569 50.0032L13.1987 50.2721C13.3094 50.988 13.3332 51.1446 13.6054 51.0913C15.1806 50.7143 16.7872 50.4831 18.4049 50.4009C18.6443 50.3968 18.6443 50.3853 18.6443 50.0515C18.5369 49.5382 18.532 49.3759 18.4557 49.3275C18.4155 49.3029 18.3565 49.3094 18.254 49.3135C16.5999 49.3579 14.9511 49.5223 13.3209 49.8055ZM10.2459 63.8316C10.1278 63.9022 10.0154 63.9801 9.86373 64.0826C9.14131 64.5737 10.0048 64.8107 10.646 64.987C10.7379 65.0116 10.8256 65.0362 10.9027 65.0592C11.4906 64.8862 12.0687 64.682 12.6353 64.4475C13.1544 64.2671 13.5209 64.1547 13.7776 64.0752C14.3401 63.903 14.3803 63.8899 14.3532 63.6783L14.3245 63.4503C14.2196 62.6008 14.204 62.4737 13.7997 62.6C11.1634 63.4266 10.6731 63.5758 10.2459 63.8316ZM11.4783 67.3585C12.5443 67.4257 13.6144 67.3667 14.6657 67.1797L14.6935 67.1715C15.0183 67.0838 15.0215 67.0829 14.9436 66.709C14.8862 66.4155 14.8485 66.1818 14.8198 65.9981C14.7378 65.4848 14.719 65.3667 14.4853 65.4364C13.6622 65.668 12.857 65.9591 12.0761 66.3072C11.4431 66.5991 10.7969 67.2051 11.4783 67.3585ZM16.4934 62.0818C15.5308 62.1884 15.4652 62.1957 15.516 62.5213C15.6751 63.5274 15.7325 63.5692 15.9416 63.5217C18.5779 62.928 19.8358 62.8722 20.4188 62.8468C20.8657 62.8271 20.9165 62.8247 20.8886 62.6115C20.805 61.9801 20.782 61.7816 20.6795 61.7251C20.6221 61.6923 20.5369 61.707 20.4016 61.7136C19.4267 61.7148 18.4537 61.7988 17.493 61.9645C17.083 62.0162 16.755 62.0531 16.4926 62.0818H16.4934ZM15.5037 74.7524C14.2721 75.1189 12.901 75.5265 12.3057 76.0865C11.7825 76.5794 12.9141 76.9024 13.6259 76.8918C14.1458 76.7494 14.6568 76.576 15.156 76.3727C15.4652 76.2637 15.7153 76.1792 15.9153 76.112C16.7017 75.8479 16.7386 75.8356 16.6763 75.5289C16.4697 74.5154 16.4483 74.4629 16.1933 74.5449C15.9727 74.613 15.7407 74.6819 15.5037 74.7524ZM14.022 79.2411C14.9978 79.2887 15.9744 79.2558 16.9444 79.141C17.379 79.1017 17.3708 79.0615 17.0724 77.5937L17.0625 77.5445C17.0379 77.4248 16.9584 77.3674 16.805 77.4092C13.7177 78.2505 13.3848 79.1476 14.022 79.2411ZM17.9744 74.1456C17.8473 74.171 17.7685 74.2415 17.7956 74.385C17.8276 74.5474 17.853 74.686 17.8743 74.8065C17.9842 75.41 18.0055 75.5224 18.245 75.4674C21.0494 74.8147 22.2318 74.7704 22.8083 74.7483C23.1707 74.7344 23.2937 74.7303 23.429 74.5892C23.397 74.4277 23.3741 74.2916 23.3544 74.1776C23.2732 73.7085 23.2576 73.6159 22.9936 73.6339C21.3101 73.6831 19.6332 73.8553 17.9744 74.1456ZM15.1126 88.1233C14.9387 88.2258 14.7747 88.3447 14.5377 88.5136C13.9145 88.9597 15.0166 89.2106 15.7185 89.3509C16.2458 89.227 16.7599 89.0565 17.2569 88.8408C17.7981 88.6522 18.1892 88.5284 18.4688 88.4398C19.1412 88.2266 19.1732 88.2168 19.1297 87.9938L19.101 87.8445C18.9141 86.8786 18.9042 86.831 18.5664 86.9368C16.1597 87.6846 15.5972 87.8388 15.1126 88.1233ZM16.1408 91.1212C15.8932 91.3025 15.9227 91.6952 16.3737 91.6952C16.564 91.6944 16.7706 91.6944 16.9863 91.6961C18.2835 91.7051 19.8784 91.7157 19.7538 91.2073C19.6439 90.7604 19.598 90.439 19.5652 90.2143C19.5061 89.8043 19.493 89.7166 19.2281 89.7814C18.3985 89.9982 17.5907 90.2911 16.8149 90.6563C16.5753 90.7884 16.3495 90.9442 16.1408 91.1212ZM20.3269 87.1328C20.3532 87.2566 20.3843 87.4083 20.4204 87.5952V87.5985C20.4885 87.9528 20.8772 87.8585 21.657 87.6699C22.4696 87.4723 23.707 87.173 25.4478 87.1713C25.6692 87.1713 25.6487 87.0409 25.5676 86.5506L25.5241 86.2792C25.4749 85.9602 25.3002 85.9913 25.0436 86.0381C24.9296 86.0586 24.8 86.0823 24.6574 86.0791C23.2319 86.1261 21.8122 86.2821 20.4106 86.5456C20.2146 86.594 20.222 86.6285 20.3269 87.1328ZM19.2855 99.4426C17.9875 99.8223 17.5717 99.9445 16.8764 100.495V100.499C16.2794 100.972 17.4217 101.329 18.1769 101.317C18.9023 101.162 19.6078 100.926 20.2802 100.613C20.4975 100.534 20.6902 100.47 20.8542 100.416C21.3175 100.263 21.5594 100.182 21.5389 100.039C21.3659 98.8744 21.3093 98.8251 21.0584 98.9071C20.3204 99.1392 19.7472 99.3073 19.2855 99.4426ZM19.9924 103.65C20.6605 103.69 21.3308 103.631 21.9817 103.475V103.479C22.1465 103.447 22.2211 103.393 22.1916 103.229C22.1506 103.015 22.1178 102.828 22.0883 102.668C21.9079 101.684 21.903 101.656 21.6619 101.753C20.7681 101.979 19.8997 102.299 19.0732 102.709C18.6213 102.951 17.9899 103.457 18.4746 103.621C18.9698 103.76 19.4922 103.77 19.9924 103.65ZM23.2166 98.4578C22.8411 98.4881 22.6131 98.507 22.6861 98.8407V98.844C22.8345 99.5353 22.8821 99.7558 23.0001 99.8042C23.06 99.8296 23.1379 99.81 23.2576 99.7862C25.6692 99.3073 26.8591 99.2204 27.4396 99.1777C27.9677 99.1392 27.9907 99.1376 27.971 98.9112C27.8955 98.047 27.889 98.047 27.3248 98.0593C27.2486 98.0609 27.1625 98.0625 27.0649 98.0625C27.0649 98.0937 26.9952 98.0904 26.8656 98.0839C26.7311 98.0773 26.5343 98.0675 26.2842 98.0896C25.5118 98.1585 24.4368 98.3044 23.8513 98.3832L23.4962 98.4307C23.397 98.443 23.3019 98.4504 23.2166 98.4578ZM23.5331 111.271C22.568 111.515 19.698 112.266 19.042 113.013C18.7206 113.38 19.1773 113.511 19.7751 113.68C19.9079 113.719 20.0473 113.758 20.1875 113.803C21.1305 113.568 23.9144 112.642 23.9964 112.56C24.0599 112.497 24.0958 112.411 24.0965 112.321C23.9251 111.207 23.8669 111.189 23.5331 111.271ZM22.2097 116.122C23.0112 116.116 23.8109 116.044 24.6008 115.907H24.6024C24.7689 115.902 24.8238 115.811 24.7886 115.646C24.7394 115.396 24.6984 115.183 24.6647 115.002C24.4835 114.043 24.4745 113.996 24.1473 114.102L23.479 114.317C21.812 114.852 21.1379 115.068 20.6271 115.652C20.1843 116.157 21.2289 116.139 21.9325 116.126C22.0334 116.124 22.1277 116.122 22.2097 116.122ZM25.333 111.632L25.4044 111.916H25.406C25.4331 112.026 25.4495 112.102 25.4954 112.145C25.6012 112.246 25.8652 112.18 26.7894 111.977C28.5606 111.59 29.4166 111.598 29.8299 111.602C30.2129 111.606 30.2161 111.606 30.2161 111.285C30.1243 110.719 30.1218 110.554 30.0464 110.506C30.0103 110.484 29.9578 110.487 29.8726 110.487C28.3814 110.525 26.8946 110.664 25.4224 110.905C25.1559 110.936 25.1879 111.059 25.333 111.632ZM25.4249 125.214C22.9977 126.03 22.8657 126.075 22.2687 126.586H22.2703C21.7898 126.997 22.4721 127.185 23.0559 127.346C23.1527 127.372 23.247 127.398 23.3331 127.424C23.7749 127.352 24.2021 127.209 24.5983 127C26.4786 126.299 26.8779 126.234 26.9304 126.064C26.9452 126.015 26.9304 125.956 26.9148 125.87C26.8886 125.727 26.864 125.583 26.841 125.438C26.7508 124.894 26.732 124.774 26.413 124.882L25.4249 125.214ZM26.085 129.664C26.5514 129.626 27.014 129.551 27.4683 129.438H27.47C27.6135 129.415 27.6774 129.332 27.6274 129.154C27.5126 128.729 27.456 128.415 27.4167 128.19C27.333 127.723 27.3183 127.638 26.978 127.74C26.1769 127.995 25.3937 128.304 24.6336 128.663C24.3302 128.821 24.0604 129.038 23.8431 129.303C23.6143 129.548 23.9751 129.721 24.1883 129.737C24.6237 129.768 25.0764 129.732 25.4675 129.7C25.7004 129.681 25.912 129.664 26.085 129.664ZM28.0612 124.548C28.0448 124.584 28.0448 124.626 28.0423 124.682L28.0464 124.684C28.1711 125.297 28.1776 125.591 28.3195 125.689C28.5491 125.848 29.1329 125.496 31.1419 125.155C32.5728 124.913 33.1804 125.049 33.3248 124.849C33.4109 124.73 33.3297 124.489 33.1583 123.972C33.0566 123.665 30.8254 124.016 30.103 124.13L29.9431 124.155C28.4302 124.379 28.126 124.408 28.0612 124.548ZM29.046 137.241C28.062 137.518 25.5741 138.229 24.864 138.967C24.4425 139.403 24.9804 139.541 25.5971 139.698C25.7102 139.727 25.8267 139.757 25.939 139.789C26.3375 139.69 26.454 139.665 26.5655 139.628C26.7533 139.563 26.9271 139.459 28.3892 138.903C28.7492 138.766 29.0107 138.687 29.1969 138.631C29.6069 138.509 29.6553 138.494 29.5913 138.204C29.5619 138.068 29.5338 137.932 29.5068 137.796C29.3912 137.218 29.3773 137.149 29.046 137.241ZM27.1477 142.102L27.2805 142.097L27.3683 142.095C28.2662 142.072 30.4187 142.016 30.3211 141.546L30.2038 140.965C30.0152 140.03 30.0103 140.005 29.8012 140.041C28.9451 140.284 28.1104 140.598 27.306 140.981C27.0132 141.153 26.7385 141.354 26.486 141.581C26.4313 141.619 26.3936 141.678 26.3808 141.743C26.368 141.809 26.381 141.877 26.4171 141.933C26.5417 142.127 26.8369 142.115 27.1477 142.102ZM30.7245 137.499C30.7475 137.582 30.7721 137.673 30.7975 137.774C30.8935 138.156 30.923 138.147 31.4904 138.001C31.7577 137.933 32.1431 137.833 32.7098 137.729C33.7225 137.519 34.7477 137.373 35.779 137.292C36.0365 137.254 35.8996 136.58 35.7183 136.293C35.515 135.972 31.3773 136.653 30.8033 136.812C30.5573 136.879 30.6089 137.072 30.7245 137.499Z" fill="black"/>
</g>
<g id="box">
<path id="vector_12" d="M44.954 119.241C54.5865 115.29 67.3228 114.096 75.4531 112.911C79.0316 112.39 79.125 113.157 79.526 114.442C81.9426 122.171 84.109 135.223 85.2349 143.243C85.6752 146.384 86.1123 147.39 83.7047 148.025C69.75 151.709 68.5995 151.504 62.0567 152.493C59.1515 152.93 54.138 153.668 51.35 153.832C50.179 153.901 49.4009 151.585 46.8835 140.112C46.1455 136.758 44.8335 129.3 43.9183 121.918C43.806 120.978 44.0766 119.601 44.954 119.241ZM47.5878 119.842C46.4472 120.17 46.248 120.485 46.2316 121.072C46.2053 121.968 48.5153 135.206 48.5202 135.236C49.9306 144.322 51.0113 151.892 51.974 151.898C53.0915 151.942 54.2105 151.863 55.3106 151.661C62.4528 150.406 80.7306 147.791 83.3341 146.216C83.8622 145.896 83.5801 145.426 83.4538 144.403C83.1086 141.638 78.6978 117.929 77.271 114.983C77.0455 114.519 48.5522 119.565 47.5878 119.842Z" fill="black"/>
<path id="vector_13" d="M85.2447 104.809C85.151 104.717 85.0399 104.644 84.918 104.595C84.796 104.546 84.6656 104.522 84.5342 104.524C84.4028 104.526 84.2732 104.554 84.1527 104.607C84.0323 104.659 83.9235 104.735 83.8326 104.83C79.1217 109.734 64.265 130.353 63.3392 131.583C62.2625 133.013 62.4183 132.875 61.5483 130.945C60.7923 129.268 58.329 123.975 58.0781 123.511C57.3819 122.23 56.8431 122.533 52.739 124.264C51.6132 124.739 51.263 125.284 51.6624 126.19C52.0117 126.981 56.9834 137.055 58.7062 140.13C60.2256 142.846 62.215 146.183 65.0481 141.965C65.1629 141.793 80.519 117.565 86.5649 108.452C86.6727 108.29 86.7448 108.107 86.7764 107.915C86.8081 107.723 86.7986 107.526 86.7486 107.338C86.487 106.374 85.967 105.499 85.2447 104.809Z" fill="black"/>
</g>
<g id="pen">
<path id="Subtract_2" fill-rule="evenodd" clip-rule="evenodd" d="M152.628 25.0662C152.741 24.789 152.938 24.306 153.146 23.3532C153.976 19.55 147.444 16.5554 143.905 17.5681C143.676 17.6337 143.477 17.6878 143.288 17.7682C141.792 18.3987 140.964 20.6119 131.481 42.4633C130.84 43.9409 131.043 44.6822 131.168 45.1348C131.268 45.4989 131.316 45.676 130.832 45.8999C130.795 45.9163 130.76 45.9327 130.726 45.9466C129.734 46.3755 129.372 46.5321 117.818 77.3674C116.772 80.1587 110.69 96.8842 110.566 99.6181C110.463 101.891 110.707 102.839 110.875 103.49C111.006 103.999 111.089 104.326 110.924 104.963C110.835 105.302 110.747 105.613 110.666 105.896C110.343 107.024 110.148 107.707 110.637 107.868C110.955 107.974 111.022 107.888 111.805 106.892C111.955 106.702 112.131 106.478 112.34 106.217C112.492 106.026 112.614 105.869 112.715 105.739C113.057 105.297 113.162 105.163 113.434 105.01C113.803 104.804 114.352 104.35 114.953 103.854C115.41 103.477 115.896 103.076 116.356 102.739C119.914 100.141 138.512 58.8477 140.306 54.824C140.981 53.3135 141.233 52.8592 141.361 52.3722C141.445 52.0458 141.475 51.7055 141.536 51.0233C141.551 50.8617 141.512 50.733 141.478 50.6165C141.402 50.3591 141.342 50.1582 141.901 49.7801C142.886 49.1127 143.135 48.5501 146.201 41.2685C149.782 32.7635 151.188 29.0587 151.188 29.0505C151.375 28.6766 151.842 29.4236 151.934 29.7885C152.417 31.6967 149.409 38.5445 146.738 44.6248C145.04 48.4911 143.479 52.0474 143.037 53.826C142.852 54.5698 143.284 55.4275 143.951 55.0937C144.987 54.5747 151.329 41.0808 151.705 40.1624C155.862 30.0198 156.283 28.8259 152.659 25.5869C152.481 25.4278 152.504 25.3728 152.628 25.0662ZM147.464 19.2417C150.769 20.1158 153.311 23.7435 149.206 23.6295C148.087 23.6128 146.985 23.3514 145.978 22.8639C144.97 22.3763 144.082 21.6743 143.375 20.8071C142.601 19.7854 144.102 18.3528 147.464 19.2417ZM111.918 102.35C111.854 101.525 111.78 100.589 111.84 100.586C111.84 99.7657 111.823 99.4377 111.92 99.3992C112.118 99.3204 112.79 100.441 115.047 101.052C115.545 101.188 115.919 101.139 115.966 101.24C116.038 101.4 115.302 101.929 112.962 104.12C112.899 104.182 112.819 104.222 112.732 104.234C112.645 104.246 112.556 104.231 112.479 104.189C112.159 104.08 111.972 103.939 111.995 103.549C112.003 103.415 111.963 102.907 111.918 102.35ZM138.658 50.5608C138.486 50.5723 138.295 50.5854 138.078 50.6018C135.981 50.651 132.081 48.5403 132.223 46.4181C132.272 45.7162 132.56 45.9622 133.239 46.5428C133.818 47.0372 134.681 47.7736 135.921 48.373C137.162 48.9733 138.255 49.0954 139.02 49.1815C139.916 49.2816 140.361 49.3308 140.069 50.0384C139.887 50.4788 139.562 50.5009 138.658 50.5608Z" fill="black"/>
</g>
</g>
</svg>
